<svg xmlns="http://www.w3.org/2000/svg" xmlns:xlink="http://www.w3.org/1999/xlink" viewBox="0 0 359.64 254.54"><defs><style>.cls-1{isolation:isolate;}.cls-2{fill:url(#linear-gradient);}.cls-3{fill:#1d63aa;}.cls-4{fill:#1a82b9;}.cls-5{fill:#e94fa5;}.cls-6{fill:#fff;}.cls-7{fill:url(#linear-gradient-2);}.cls-8{fill:#145aa6;}.cls-9{fill:#1c77b4;}.cls-10{fill:#6e9ac8;}.cls-11{fill:#d748a1;}.cls-12,.cls-13,.cls-14{mix-blend-mode:multiply;}.cls-12{fill:url(#linear-gradient-3);}.cls-13{fill:url(#linear-gradient-4);}.cls-14{fill:url(#linear-gradient-5);}.cls-15{fill:#83cde1;}.cls-16,.cls-24,.cls-26{fill:none;stroke-miterlimit:10;}.cls-16{stroke:#5a9ec8;}.cls-17{fill:#e6e6e6;}.cls-18{fill:#946340;}.cls-19{fill:#3f2d24;}.cls-20{fill:#3f281f;}.cls-21{fill:#2d1c17;}.cls-22{fill:#7e5435;}.cls-23{fill:#2a1b1a;}.cls-24{stroke:#5e4033;}.cls-25{fill:#262e70;}.cls-26{stroke:#7d5435;}.cls-27{fill:url(#linear-gradient-6);}.cls-28{fill:#a3a3a3;}.cls-29{fill:#ccc;}.cls-30{fill:url(#linear-gradient-7);}.cls-31{fill:#c5c6c5;}.cls-32{fill:#dfdfdf;}.cls-33{fill:#b3b39a;}.cls-34{fill:#81485c;}.cls-35{fill:#d3d3c7;}</style><linearGradient id="linear-gradient" x1="100.99" y1="66.11" x2="100.99" y2="128.01" gradientUnits="userSpaceOnUse"><stop offset="0" stop-color="#1d489e"/><stop offset="1" stop-color="#1e479d"/></linearGradient><linearGradient id="linear-gradient-2" x1="259.04" y1="10.2" x2="259.04" y2="103.32" gradientUnits="userSpaceOnUse"><stop offset="0" stop-color="#1b419a"/><stop offset="1" stop-color="#1e3f97"/></linearGradient><linearGradient id="linear-gradient-3" x1="321.82" y1="87.39" x2="321.82" y2="142.72" gradientUnits="userSpaceOnUse"><stop offset="0" stop-color="#3f8cbf"/><stop offset="0.22" stop-color="#3b83bb"/><stop offset="0.59" stop-color="#2f6bae"/><stop offset="1" stop-color="#1e489d"/></linearGradient><linearGradient id="linear-gradient-4" x1="33.89" y1="20.43" x2="33.89" y2="70" xlink:href="#linear-gradient-3"/><linearGradient id="linear-gradient-5" x1="38.89" y1="122.09" x2="38.89" y2="160.53" xlink:href="#linear-gradient-3"/><linearGradient id="linear-gradient-6" x1="308.91" y1="128.42" x2="308.91" y2="237.5" gradientTransform="matrix(1, 0, -0.1, 1, 2.16, 0)" gradientUnits="userSpaceOnUse"><stop offset="0.01" stop-color="#fff" stop-opacity="0"/><stop offset="0.09" stop-color="#fff" stop-opacity="0.04"/><stop offset="0.23" stop-color="#fff" stop-opacity="0.13"/><stop offset="0.4" stop-color="#fff" stop-opacity="0.29"/><stop offset="0.6" stop-color="#fff" stop-opacity="0.5"/><stop offset="0.83" stop-color="#fff" stop-opacity="0.77"/><stop offset="1" stop-color="#fff"/></linearGradient><linearGradient id="linear-gradient-7" x1="179.45" y1="96.73" x2="179.45" y2="227.95" gradientTransform="matrix(1, 0, 0, 1, 0, 0)" xlink:href="#linear-gradient-6"/></defs><title>Asset 4largethreenol</title><g class="cls-1"><g id="Layer_2" data-name="Layer 2"><g id="Layer_1-2" data-name="Layer 1"><rect class="cls-2" x="34.63" y="59.33" width="132.73" height="75.33" rx="3.48"/><path class="cls-3" d="M152.07,68.83a3.75,3.75,0,1,1-3.75-3.75A3.75,3.75,0,0,1,152.07,68.83Z"/><path class="cls-3" d="M141.57,68.83a3.75,3.75,0,1,1-3.75-3.75A3.75,3.75,0,0,1,141.57,68.83Z"/><path class="cls-3" d="M162.57,68.83a3.75,3.75,0,1,1-3.75-3.75A3.75,3.75,0,0,1,162.57,68.83Z"/><path class="cls-4" d="M51.08,87.45l-3.79-1.7v-.58l3.79-1.7v.81L48,85.61v-.3l3.13,1.33Z"/><path class="cls-4" d="M52.19,88.45V82.08H53v6.37Zm3,0V86a1.12,1.12,0,0,0-.3-.8,1.06,1.06,0,0,0-.78-.31,1.1,1.1,0,0,0-.57.15.92.92,0,0,0-.39.39A1,1,0,0,0,53,86l-.33-.19a1.67,1.67,0,0,1,.21-.85,1.57,1.57,0,0,1,.6-.6,1.74,1.74,0,0,1,.86-.22,1.71,1.71,0,0,1,.85.22,1.46,1.46,0,0,1,.58.6,1.67,1.67,0,0,1,.22.88v2.63Z"/><path class="cls-4" d="M56.63,84.94v-.73h2.89v.73Zm1,3.51v-6h.8v6Z"/><path class="cls-4" d="M60.3,88.45V84.21h.8v4.24Zm2.86,0V85.89a1,1,0,0,0-.29-.75A1.12,1.12,0,0,0,61.62,85a.92.92,0,0,0-.52.89l-.33-.17a1.64,1.64,0,0,1,.21-.84,1.49,1.49,0,0,1,.58-.56,1.69,1.69,0,0,1,.82-.2,1.67,1.67,0,0,1,.8.2,1.51,1.51,0,0,1,.57.55,1.65,1.65,0,0,1,.21.85v2.73Zm2.86,0V85.89a1,1,0,0,0-1-1,1.07,1.07,0,0,0-.53.13,1,1,0,0,0-.37.34,1,1,0,0,0-.15.55l-.45-.17a1.61,1.61,0,0,1,.26-.84,1.72,1.72,0,0,1,.61-.56,1.74,1.74,0,0,1,.82-.2,1.73,1.73,0,0,1,.83.2,1.53,1.53,0,0,1,.58.55,1.6,1.6,0,0,1,.22.86v2.72Z"/><path class="cls-4" d="M67.92,88.45V82.08h.8v6.37Z"/><path class="cls-5" d="M71.74,88.45V82.08h.8v6.37Z"/><path class="cls-5" d="M75.52,88.53a1.92,1.92,0,0,1-1.06-.29,2.06,2.06,0,0,1-.74-.78,2.36,2.36,0,0,1-.27-1.13,2.32,2.32,0,0,1,.27-1.12,2.08,2.08,0,0,1,.74-.79,1.93,1.93,0,0,1,1.06-.3,1.85,1.85,0,0,1,.86.2,1.72,1.72,0,0,1,.61.56,1.65,1.65,0,0,1,.26.81V87a1.72,1.72,0,0,1-.26.81,1.55,1.55,0,0,1-.61.55A1.73,1.73,0,0,1,75.52,88.53Zm.13-.75a1.22,1.22,0,0,0,1-.41,1.46,1.46,0,0,0,.37-1,1.66,1.66,0,0,0-.17-.75,1.31,1.31,0,0,0-.47-.52,1.36,1.36,0,0,0-1.89.52,1.64,1.64,0,0,0-.17.74,1.67,1.67,0,0,0,.17.76,1.33,1.33,0,0,0,.49.51A1.3,1.3,0,0,0,75.65,87.78Zm1.28.67V87.3l.15-1-.15-1v-1h.81v4.24Z"/><path class="cls-5" d="M78.9,88.45V84.21h.81v4.24Zm3,0V86a1.12,1.12,0,0,0-.3-.8,1.06,1.06,0,0,0-.78-.31,1.1,1.1,0,0,0-.57.15.92.92,0,0,0-.39.39,1,1,0,0,0-.14.57l-.33-.19a1.67,1.67,0,0,1,.21-.85,1.57,1.57,0,0,1,.6-.6,1.74,1.74,0,0,1,.86-.22,1.47,1.47,0,0,1,.85.25,1.75,1.75,0,0,1,.8,1.45v2.63Z"/><path class="cls-5" d="M85.54,88.37a1.92,1.92,0,0,1-1.76-1,2.24,2.24,0,0,1-.27-1.1,2.27,2.27,0,0,1,.26-1.08,2,2,0,0,1,.73-.75,1.93,1.93,0,0,1,1-.29,2,2,0,0,1,.89.2,1.48,1.48,0,0,1,.61.55,1.68,1.68,0,0,1,.25.82v1.13a1.59,1.59,0,0,1-.26.81,1.48,1.48,0,0,1-.61.55A1.86,1.86,0,0,1,85.54,88.37Zm0,1.94a2.64,2.64,0,0,1-1.16-.24,2.14,2.14,0,0,1-.81-.68l.53-.53a1.76,1.76,0,0,0,.61.51,2,2,0,0,0,.85.17,1.45,1.45,0,0,0,1-.34,1.17,1.17,0,0,0,.39-.92V87.22l.14-1L87,85.33V84.21h.8v4.07a2.07,2.07,0,0,1-.28,1.06,1.88,1.88,0,0,1-.79.71A2.51,2.51,0,0,1,85.54,90.31Zm.15-2.69a1.42,1.42,0,0,0,.7-.17,1.25,1.25,0,0,0,.46-.48,1.68,1.68,0,0,0,0-1.43,1.15,1.15,0,0,0-.47-.48,1.43,1.43,0,0,0-1.39,0,1.23,1.23,0,0,0-.48.48,1.45,1.45,0,0,0-.17.7,1.53,1.53,0,0,0,.17.72,1.23,1.23,0,0,0,.48.48A1.38,1.38,0,0,0,85.69,87.62Z"/><path class="cls-6" d="M88.86,84.81v-.73h3.79v.73Zm0,2v-.73h3.79v.73Z"/><path class="cls-6" d="M94,84.26l-.2-2.18h.89l-.18,2.18Zm1.45,0-.19-2.18h.89l-.19,2.18Z"/><path class="cls-6" d="M98.68,88.53a2.22,2.22,0,0,1-1.94-1.07,2.17,2.17,0,0,1-.29-1.14,2.15,2.15,0,0,1,.29-1.12,2.13,2.13,0,0,1,1.89-1.08,2,2,0,0,1,1,.27,1.94,1.94,0,0,1,.71.74,2.26,2.26,0,0,1,.25,1.08v.19c0,.07,0,.14,0,.23H97V86h3.14l-.29.26a1.61,1.61,0,0,0-.15-.73,1.12,1.12,0,0,0-.43-.46,1.31,1.31,0,0,0-.67-.17,1.43,1.43,0,0,0-.72.18,1.22,1.22,0,0,0-.48.5,1.52,1.52,0,0,0-.17.76,1.61,1.61,0,0,0,.18.78,1.23,1.23,0,0,0,.5.51,1.48,1.48,0,0,0,.76.19,1.59,1.59,0,0,0,.66-.13,1.34,1.34,0,0,0,.51-.37l.52.52a2.15,2.15,0,0,1-.75.55A2.46,2.46,0,0,1,98.68,88.53Z"/><path class="cls-6" d="M101.5,88.45V84.21h.8v4.24Zm3,0V86a1.12,1.12,0,0,0-.3-.8,1.06,1.06,0,0,0-.78-.31,1.1,1.1,0,0,0-.57.15,1,1,0,0,0-.39.39,1.15,1.15,0,0,0-.14.57l-.33-.19a1.67,1.67,0,0,1,.21-.85,1.64,1.64,0,0,1,.6-.6,1.77,1.77,0,0,1,.86-.22,1.47,1.47,0,0,1,.86.25,1.71,1.71,0,0,1,.79,1.45v2.63Z"/><path class="cls-6" d="M106.27,84.26l-.19-2.18H107l-.19,2.18Zm1.46,0-.19-2.18h.89l-.2,2.18Z"/><path class="cls-4" d="M109.55,84.28v-.81l3.79,1.7v.58l-3.79,1.7v-.81l3.13-1.33v.3Z"/><path class="cls-4" d="M118.17,87.45l-3.79-1.7v-.58l3.79-1.7v.81L115,85.61v-.3l3.13,1.33Z"/><path class="cls-4" d="M119.28,88.45V82.08h.8v6.37Zm3,0V86a1.12,1.12,0,0,0-.3-.8,1.14,1.14,0,0,0-1.35-.16,1,1,0,0,0-.4.39,1.15,1.15,0,0,0-.14.57l-.33-.19a1.58,1.58,0,0,1,.22-.85,1.62,1.62,0,0,1,.59-.6,1.81,1.81,0,0,1,.87-.22,1.71,1.71,0,0,1,.85.22,1.52,1.52,0,0,1,.58.6,1.77,1.77,0,0,1,.22.88v2.63Z"/><path class="cls-4" d="M126.12,88.53a2.17,2.17,0,0,1-1.14-.29,2.14,2.14,0,0,1-.8-.78,2.17,2.17,0,0,1-.29-1.14,2.15,2.15,0,0,1,.29-1.12,2.13,2.13,0,0,1,1.89-1.08,2,2,0,0,1,1,.27,1.87,1.87,0,0,1,.71.74,2.26,2.26,0,0,1,.25,1.08v.19c0,.07,0,.14,0,.23h-3.57V86h3.14l-.29.26a1.61,1.61,0,0,0-.15-.73,1.12,1.12,0,0,0-.43-.46,1.28,1.28,0,0,0-.67-.17,1.43,1.43,0,0,0-.72.18,1.22,1.22,0,0,0-.48.5,1.64,1.64,0,0,0-.17.76,1.61,1.61,0,0,0,.18.78,1.25,1.25,0,0,0,.51.51,1.44,1.44,0,0,0,.75.19,1.59,1.59,0,0,0,.66-.13,1.34,1.34,0,0,0,.51-.37l.52.52a2.15,2.15,0,0,1-.75.55A2.42,2.42,0,0,1,126.12,88.53Z"/><path class="cls-4" d="M130.74,88.53a1.92,1.92,0,0,1-1.06-.29,2.06,2.06,0,0,1-.74-.78,2.36,2.36,0,0,1-.27-1.13,2.32,2.32,0,0,1,.27-1.12,2.08,2.08,0,0,1,.74-.79,1.93,1.93,0,0,1,1.06-.3,1.85,1.85,0,0,1,.86.2,1.72,1.72,0,0,1,.61.56,1.65,1.65,0,0,1,.26.81V87a1.72,1.72,0,0,1-.26.81,1.55,1.55,0,0,1-.61.55A1.73,1.73,0,0,1,130.74,88.53Zm.13-.75a1.22,1.22,0,0,0,1-.41,1.46,1.46,0,0,0,.37-1,1.66,1.66,0,0,0-.17-.75,1.31,1.31,0,0,0-.47-.52,1.36,1.36,0,0,0-1.89.52,1.64,1.64,0,0,0-.17.74,1.67,1.67,0,0,0,.17.76,1.33,1.33,0,0,0,.49.51A1.3,1.3,0,0,0,130.87,87.78Zm1.28.67V87.3l.15-1-.15-1v-1H133v4.24Z"/><path class="cls-4" d="M135.91,88.53a1.89,1.89,0,0,1-1-.29,2,2,0,0,1-.73-.78,2.36,2.36,0,0,1-.27-1.13,2.32,2.32,0,0,1,.27-1.12,2.06,2.06,0,0,1,.73-.79,2,2,0,0,1,1.91-.1,1.75,1.75,0,0,1,.62.56,1.56,1.56,0,0,1,.26.81V87a1.61,1.61,0,0,1-.87,1.36A1.8,1.8,0,0,1,135.91,88.53Zm.13-.75a1.25,1.25,0,0,0,.7-.19,1.39,1.39,0,0,0,.48-.51,1.84,1.84,0,0,0,0-1.5,1.31,1.31,0,0,0-.48-.51,1.25,1.25,0,0,0-.7-.19,1.33,1.33,0,0,0-.7.18,1.3,1.3,0,0,0-.48.51,1.76,1.76,0,0,0,0,1.51,1.18,1.18,0,0,0,.48.51A1.27,1.27,0,0,0,136,87.78Zm2.1.67h-.81V87.3l.15-1-.15-1V82.08h.81Z"/><path class="cls-4" d="M139.24,84.28v-.81l3.78,1.7v.58l-3.78,1.7v-.81l3.12-1.33v.3Z"/><path class="cls-4" d="M58.46,98.14l-3.79-1.69v-.59l3.79-1.69V95L55.33,96.3V96l3.13,1.33Z"/><path class="cls-4" d="M59.57,99.14V94.91h.8v4.23Zm2.86,0V96.58a1,1,0,0,0-.29-.74,1,1,0,0,0-.73-.28,1.11,1.11,0,0,0-.52.13,1,1,0,0,0-.38.35,1,1,0,0,0-.14.54L60,96.41a1.64,1.64,0,0,1,.21-.84,1.46,1.46,0,0,1,.58-.55,1.58,1.58,0,0,1,.82-.2,1.66,1.66,0,0,1,.8.19,1.51,1.51,0,0,1,.57.55,1.65,1.65,0,0,1,.21.85v2.73Zm2.86,0V96.58a1,1,0,0,0-.29-.74,1,1,0,0,0-.72-.28,1.19,1.19,0,0,0-.53.13,1.06,1.06,0,0,0-.38.35,1,1,0,0,0-.14.54l-.45-.17a1.52,1.52,0,0,1,.26-.84,1.61,1.61,0,0,1,.61-.55,1.63,1.63,0,0,1,.82-.2,1.75,1.75,0,0,1,.83.19,1.53,1.53,0,0,1,.58.55,1.6,1.6,0,0,1,.22.86v2.72Z"/><path class="cls-4" d="M69.15,99.23A2.31,2.31,0,0,1,68,98.94a2.22,2.22,0,0,1-.79-.79,2.15,2.15,0,0,1-.3-1.13,2.26,2.26,0,0,1,.29-1.13,2.15,2.15,0,0,1,1.89-1.07,2.11,2.11,0,0,1,1,.26,1.94,1.94,0,0,1,.71.74,2.39,2.39,0,0,1,.25,1.08,1.28,1.28,0,0,1,0,.19,2.23,2.23,0,0,1,0,.23H67.47v-.67h3.15l-.3.26a1.61,1.61,0,0,0-.15-.73,1.06,1.06,0,0,0-.43-.46,1.24,1.24,0,0,0-.66-.16,1.54,1.54,0,0,0-.73.17,1.36,1.36,0,0,0-.48.5,1.67,1.67,0,0,0-.17.76,1.61,1.61,0,0,0,.18.78,1.34,1.34,0,0,0,.51.52,1.55,1.55,0,0,0,.76.18,1.57,1.57,0,0,0,.65-.13,1.24,1.24,0,0,0,.51-.37l.52.53a2.25,2.25,0,0,1-.75.54A2.41,2.41,0,0,1,69.15,99.23Z"/><path class="cls-4" d="M71.45,95.64v-.73h2.88v.73Zm1,3.5v-6h.8v6Z"/><path class="cls-4" d="M76.78,99.23a2,2,0,0,1-1-.29,2.16,2.16,0,0,1-.74-.79A2.32,2.32,0,0,1,74.72,97,2.36,2.36,0,0,1,75,95.9a2.16,2.16,0,0,1,.74-.79,1.89,1.89,0,0,1,1-.29,1.73,1.73,0,0,1,.86.2,1.48,1.48,0,0,1,.61.55,1.56,1.56,0,0,1,.26.81v1.28a1.71,1.71,0,0,1-.25.81,1.64,1.64,0,0,1-.61.56A1.92,1.92,0,0,1,76.78,99.23Zm.14-.76a1.24,1.24,0,0,0,1-.41,1.49,1.49,0,0,0,.36-1,1.55,1.55,0,0,0-.17-.76,1.2,1.2,0,0,0-.46-.51,1.27,1.27,0,0,0-.7-.19,1.37,1.37,0,0,0-.71.19,1.3,1.3,0,0,0-.48.51,1.65,1.65,0,0,0,0,1.5,1.24,1.24,0,0,0,.48.51A1.34,1.34,0,0,0,76.92,98.47Zm1.27.67V98l.15-1-.15-1v-1H79v4.23Z"/><path class="cls-5" d="M84,99.23a2.15,2.15,0,0,1-1.13-.3,2,2,0,0,1-.79-.8A2.09,2.09,0,0,1,81.74,97,2.16,2.16,0,0,1,82,95.89a2,2,0,0,1,.79-.78A2.14,2.14,0,0,1,84,94.82a2.23,2.23,0,0,1,.9.18,2.11,2.11,0,0,1,.73.53l-.54.53a1.3,1.3,0,0,0-.48-.35,1.54,1.54,0,0,0-.61-.12,1.43,1.43,0,0,0-.72.18,1.33,1.33,0,0,0-.49.51,1.47,1.47,0,0,0-.18.74,1.5,1.5,0,0,0,.18.74,1.31,1.31,0,0,0,.49.5,1.34,1.34,0,0,0,.72.19,1.51,1.51,0,0,0,.61-.12,1.42,1.42,0,0,0,.49-.35l.53.53a2.11,2.11,0,0,1-.72.53A2.32,2.32,0,0,1,84,99.23Z"/><path class="cls-5" d="M86.37,99.14V92.78h.8v6.36Zm3,0V96.67a1.11,1.11,0,0,0-.29-.79,1,1,0,0,0-.78-.32,1.05,1.05,0,0,0-.57.15,1,1,0,0,0-.4.39,1.2,1.2,0,0,0-.14.57l-.33-.19A1.66,1.66,0,0,1,87.65,95a1.81,1.81,0,0,1,.87-.21,1.7,1.7,0,0,1,.85.21,1.52,1.52,0,0,1,.58.6,1.79,1.79,0,0,1,.21.88v2.63Z"/><path class="cls-5" d="M93.05,99.23a2,2,0,0,1-1-.29,2.08,2.08,0,0,1-.74-.79A2.22,2.22,0,0,1,91,97a2.26,2.26,0,0,1,.28-1.13,2.08,2.08,0,0,1,.74-.79,1.89,1.89,0,0,1,1-.29,1.73,1.73,0,0,1,.86.2,1.54,1.54,0,0,1,.61.55,1.56,1.56,0,0,1,.26.81v1.28A1.6,1.6,0,0,1,93.92,99,1.92,1.92,0,0,1,93.05,99.23Zm.14-.76a1.25,1.25,0,0,0,1-.41,1.49,1.49,0,0,0,.36-1,1.55,1.55,0,0,0-.17-.76,1.25,1.25,0,0,0-1.16-.7,1.37,1.37,0,0,0-.71.19,1.3,1.3,0,0,0-.48.51,1.65,1.65,0,0,0,0,1.5,1.18,1.18,0,0,0,.48.51A1.34,1.34,0,0,0,93.19,98.47Zm1.27.67V98l.15-1-.15-1v-1h.81v4.23Z"/><path class="cls-5" d="M96.44,99.14V94.91h.8v4.23Zm.8-2.41-.3-.14a2,2,0,0,1,.37-1.29,1.29,1.29,0,0,1,1.08-.48,1.4,1.4,0,0,1,.58.11,1.25,1.25,0,0,1,.48.37l-.53.54a.8.8,0,0,0-.29-.2.89.89,0,0,0-.38-.07,1,1,0,0,0-.73.29A1.18,1.18,0,0,0,97.24,96.73Z"/><path class="cls-5" d="M101.27,99.23a2.15,2.15,0,0,1-.68-.1,1.89,1.89,0,0,1-1-.68l.51-.52a1.56,1.56,0,0,0,.54.43,1.6,1.6,0,0,0,.67.14,1.13,1.13,0,0,0,.58-.13.41.41,0,0,0,.21-.36.45.45,0,0,0-.17-.37,1.64,1.64,0,0,0-.42-.21c-.17-.06-.35-.11-.55-.16a3.71,3.71,0,0,1-.55-.22,1.15,1.15,0,0,1-.42-.37,1,1,0,0,1-.16-.62,1.21,1.21,0,0,1,.18-.66,1.11,1.11,0,0,1,.52-.43,2,2,0,0,1,.81-.15,2.11,2.11,0,0,1,.89.17,1.53,1.53,0,0,1,.63.52l-.51.52a1.28,1.28,0,0,0-.45-.36,1.38,1.38,0,0,0-.59-.12,1,1,0,0,0-.53.12.38.38,0,0,0-.18.33.41.41,0,0,0,.16.33,1.57,1.57,0,0,0,.43.2l.54.16a2.91,2.91,0,0,1,.55.23,1.18,1.18,0,0,1,.42.38,1.09,1.09,0,0,1,.16.63,1.17,1.17,0,0,1-.42.95A1.73,1.73,0,0,1,101.27,99.23Z"/><path class="cls-5" d="M105.68,99.23a2.3,2.3,0,0,1-1.14-.29A2.15,2.15,0,0,1,103.45,97a2.16,2.16,0,0,1,.29-1.13,2.15,2.15,0,0,1,1.89-1.07,2,2,0,0,1,1,.26,1.87,1.87,0,0,1,.71.74,2.27,2.27,0,0,1,.26,1.08c0,.06,0,.12,0,.19a2.23,2.23,0,0,1,0,.23H104v-.67h3.14l-.29.26a1.61,1.61,0,0,0-.15-.73,1.06,1.06,0,0,0-.43-.46,1.28,1.28,0,0,0-.67-.16,1.53,1.53,0,0,0-.72.17,1.22,1.22,0,0,0-.48.5,1.67,1.67,0,0,0-.17.76,1.61,1.61,0,0,0,.18.78,1.34,1.34,0,0,0,.51.52,1.54,1.54,0,0,0,.75.18,1.59,1.59,0,0,0,.66-.13,1.24,1.24,0,0,0,.51-.37l.52.53a2.25,2.25,0,0,1-.75.54A2.43,2.43,0,0,1,105.68,99.23Z"/><path class="cls-5" d="M108,95.64v-.73h2.89v.73Zm1,3.5v-6h.8v6Z"/><path class="cls-6" d="M111.58,95.5v-.73h3.79v.73Zm0,2v-.73h3.79v.73Z"/><path class="cls-6" d="M116.7,95l-.2-2.17h.89L117.2,95Zm1.45,0L118,92.78h.89L118.66,95Z"/><path class="cls-6" d="M122.51,99.23a2.39,2.39,0,0,1-1.22-.32,2.2,2.2,0,0,1-.86-.85,2.26,2.26,0,0,1-.32-1.21V93H121v3.88a1.65,1.65,0,0,0,.2.85,1.48,1.48,0,0,0,.56.55,1.59,1.59,0,0,0,.79.19,1.57,1.57,0,0,0,.79-.19,1.53,1.53,0,0,0,.55-.55,1.74,1.74,0,0,0,.2-.84V93h.84v3.91a2.34,2.34,0,0,1-.31,1.21,2.28,2.28,0,0,1-.85.84A2.34,2.34,0,0,1,122.51,99.23Z"/><path class="cls-6" d="M125.72,93.72V93h5v.77Zm2.1,5.42v-6h.84v6Z"/><path class="cls-6" d="M131.75,99.14V93h.84v6.19Zm.57-5.42V93h3.38v.77Zm0,2.7v-.77h3.23v.77Z"/><path class="cls-6" d="M136.37,97.26v-.77h2.93v.77Z"/><path class="cls-6" d="M142.34,99.23a2.34,2.34,0,0,1-1.09-.24,1.66,1.66,0,0,1-.72-.64,1.63,1.63,0,0,1-.27-.92,1.77,1.77,0,0,1,.17-.77,1.68,1.68,0,0,1,.47-.59,1.9,1.9,0,0,1,.73-.35l0,.24a1.44,1.44,0,0,1-.6-.32,1.46,1.46,0,0,1-.37-.52,1.64,1.64,0,0,1,.1-1.48,1.54,1.54,0,0,1,.64-.57,2,2,0,0,1,.92-.21,2,2,0,0,1,.93.21,1.65,1.65,0,0,1,.63.57,1.59,1.59,0,0,1,.23.85,1.51,1.51,0,0,1-.13.63,1.59,1.59,0,0,1-.37.52A1.55,1.55,0,0,1,143,96l0-.24a1.81,1.81,0,0,1,.74.35,1.68,1.68,0,0,1,.47.59,1.77,1.77,0,0,1,.16.77,1.69,1.69,0,0,1-.25.92,1.75,1.75,0,0,1-.73.64A2.37,2.37,0,0,1,142.34,99.23Zm0-.76a1.38,1.38,0,0,0,.65-.15,1.17,1.17,0,0,0,.45-.4,1.1,1.1,0,0,0,.16-.6,1,1,0,0,0-.16-.58,1.19,1.19,0,0,0-.45-.41,1.38,1.38,0,0,0-.65-.15,1.36,1.36,0,0,0-.65.15,1.19,1.19,0,0,0-.45.41,1,1,0,0,0-.17.58,1.11,1.11,0,0,0,.17.6,1.17,1.17,0,0,0,.45.4A1.36,1.36,0,0,0,142.34,98.47Zm0-2.94a1,1,0,0,0,.72-1.69,1,1,0,0,0-.72-.26,1,1,0,0,0-.72.26,1,1,0,0,0,0,1.41A1,1,0,0,0,142.34,95.53Z"/><path class="cls-6" d="M145.27,95l-.2-2.17H146L145.78,95Zm1.45,0-.19-2.17h.9l-.2,2.17Z"/><path class="cls-4" d="M148.55,95v-.81l3.78,1.69v.59l-3.78,1.69v-.81L151.68,96v.3Z"/><rect class="cls-7" x="177.51" width="163.08" height="113.33" rx="3.82"/><path class="cls-8" d="M321.4,9.49a3.75,3.75,0,1,1-3.75-3.75A3.75,3.75,0,0,1,321.4,9.49Z"/><path class="cls-8" d="M310.9,9.49a3.75,3.75,0,1,1-3.74-3.75A3.74,3.74,0,0,1,310.9,9.49Z"/><path class="cls-8" d="M331.9,9.49a3.75,3.75,0,1,1-3.75-3.75A3.75,3.75,0,0,1,331.9,9.49Z"/><rect class="cls-9" x="192.99" y="19.51" width="12.95" height="5.23"/><rect class="cls-9" x="192.99" y="68.31" width="26.55" height="5.23"/><rect class="cls-10" x="224.4" y="68.31" width="70.91" height="5.23"/><rect class="cls-9" x="198.17" y="80.51" width="16.84" height="5.23"/><rect class="cls-10" x="219.86" y="80.51" width="89.05" height="5.23"/><rect class="cls-11" x="198.17" y="92.71" width="16.84" height="5.23"/><rect class="cls-10" x="219.86" y="92.71" width="89.05" height="5.23"/><rect class="cls-9" x="198.17" y="31.71" width="12.95" height="5.23"/><rect class="cls-11" x="215.98" y="31.71" width="38.86" height="5.23"/><rect class="cls-10" x="259.69" y="31.71" width="65.41" height="5.23"/><rect class="cls-11" x="198.17" y="43.91" width="17.49" height="5.23"/><rect class="cls-10" x="220.51" y="43.91" width="28.5" height="5.23"/><rect class="cls-9" x="253.86" y="43.91" width="71.24" height="5.23"/><rect class="cls-11" x="207.24" y="56.11" width="17.48" height="5.23"/><rect class="cls-10" x="229.58" y="56.11" width="28.5" height="5.23"/><rect class="cls-10" x="262.93" y="56.11" width="44.69" height="5.23"/><rect class="cls-12" x="284" y="81.33" width="75.64" height="67.33" rx="3.11"/><rect class="cls-13" y="15" width="67.78" height="60.33" rx="2.79"/><rect class="cls-14" x="15.33" y="117.88" width="47.11" height="46.79" rx="2.79"/><path class="cls-15" d="M221.11,233.94s7.35-61.26,2.83-70.61c-6.06-12.57-33.25-12.75-44.15-12.75s-38.09.18-44.15,12.75c-4.52,9.35,2.83,70.61,2.83,70.61s-1.08,4.91-.08,8.34,11.37,5.8,15.83,6.05c6,.32,17.27.25,27.87.25s22.93-.8,26.8-1.23,9.14-3,11-7.52A22.56,22.56,0,0,0,221.11,233.94Z"/><path class="cls-15" d="M139.23,158.76c-4,1.31-28.21,48-31.71,63.25-2.23,9.71-.67,18.52,6,22.13s32.5,3.44,32.5,3.44l.54-76S143.23,157.45,139.23,158.76Z"/><path class="cls-16" d="M141.42,158.1s2.34,7,4.1,14.48a60.73,60.73,0,0,1,1.56,13.95S145,213.58,145,220.58"/><path class="cls-16" d="M125.23,208.6a16.74,16.74,0,0,1,9,8.5"/><path class="cls-16" d="M122.9,213.6s20.12,5.48,33.62,16.48"/><path class="cls-15" d="M220.35,158.76c4,1.31,28.21,48,31.71,63.25,2.23,9.71.67,18.52-6,22.13s-32.5,3.44-32.5,3.44l-.54-76S216.35,157.45,220.35,158.76Z"/><path class="cls-16" d="M218.16,158.1s-2.34,7-4.1,14.48a60.73,60.73,0,0,0-1.56,13.95s2.06,27.05,2.06,34.05"/><path class="cls-16" d="M234.35,208.6a16.74,16.74,0,0,0-9,8.5"/><path class="cls-16" d="M236.68,213.6s-20.12,5.48-33.62,16.48"/><rect class="cls-17" x="127.01" y="239.62" width="105.56" height="3.8" rx="0.41"/><path class="cls-18" d="M189.88,136.75l4.58,22.85s-2.86,7.37-13,7.31-14.53-7.11-14.53-7.11l4-22.5Z"/><path class="cls-18" d="M207.94,124.05c-1.63-1.57-4.95.51-5.5.91a50.2,50.2,0,0,0-.82-9.2c-1.81-7.57-8.83-13.24-15.55-15.21-9.9-2.89-18.15-.17-24.08,8.47a33.84,33.84,0,0,0-5.64,15,4.47,4.47,0,0,0-3.1-.76c-1.8.34-4.68,5.26-2.82,9.3s7.17,5.57,7.75,5.69c1.95,6.49,5.35,11.23,12,14.66s14.67,4.42,20.6.36,10.86-12.28,11.14-15a14.1,14.1,0,0,0,6.73-5.62C210.12,129.89,210.34,126.37,207.94,124.05Z"/><path class="cls-19" d="M173.74,134.52a3.18,3.18,0,1,1-3.17-3.17A3.17,3.17,0,0,1,173.74,134.52Z"/><path class="cls-20" d="M185.84,134.52a3.18,3.18,0,1,0,3.17-3.17A3.17,3.17,0,0,0,185.84,134.52Z"/><path class="cls-21" d="M173.1,127.56c-.54-.18-1.12-.25-1.67-.39A6.67,6.67,0,0,0,170,127c-.27,0-.53,0-.79,0a2.54,2.54,0,0,0-1,.28,7.14,7.14,0,0,0-.71.4,5,5,0,0,0-.63.51.31.31,0,0,0,.14.52,3,3,0,0,0,.79.08c.23,0,.47-.06.7-.06s.55,0,.82,0H170l.58,0c.1,0,.11,0,0,0l.16,0,.34.07c.53.13,1.08.18,1.6.34a.84.84,0,1,0,.44-1.62Z"/><path class="cls-21" d="M186.92,129.18c.52-.16,1.07-.21,1.6-.34l.34-.07.16,0c-.09,0-.08,0,0,0l.58,0h.68c.27,0,.54,0,.82,0s.47,0,.7.06a3,3,0,0,0,.79-.08.31.31,0,0,0,.14-.52,5,5,0,0,0-.63-.51,7.14,7.14,0,0,0-.71-.4,2.54,2.54,0,0,0-1-.28c-.26,0-.53,0-.79,0a6.67,6.67,0,0,0-1.47.2c-.55.14-1.13.21-1.67.39a.84.84,0,1,0,.44,1.62Z"/><path class="cls-22" d="M180,132.25a18.34,18.34,0,0,1,.37,3.09c0,1,.05,2,0,3l0,.6-.69.27a5.92,5.92,0,0,0-1.71,1,1.47,1.47,0,0,0-.13.16s0,0,0,0,.15.29.35.51a11.52,11.52,0,0,0,1.77,1.47,7.11,7.11,0,0,0,2.23,1,4.22,4.22,0,0,1-2.7.13,7.32,7.32,0,0,1-2.51-1.14,3.32,3.32,0,0,1-.63-.57c-.1-.13-.2-.25-.29-.38a4.93,4.93,0,0,1-.22-.53,2.22,2.22,0,0,1,.05-1.25,2.63,2.63,0,0,1,.57-.88,5.86,5.86,0,0,1,2.67-1.44l-.72.87a28.26,28.26,0,0,1,.64-3A19.34,19.34,0,0,1,180,132.25Z"/><path class="cls-22" d="M187.81,142.87c0-.06-.13.13-.21.21l-.52.54c-.46.45-.93.91-1.41,1.34a7.24,7.24,0,0,1-2.93,2,10.6,10.6,0,0,1-3.68-.18c-.5-.08-1-.19-1.49-.29a3.38,3.38,0,0,0-1.37-.19.48.48,0,0,0-.29.7c.63.94,2,1.09,3,1.25a10.51,10.51,0,0,0,4.29.06,8.92,8.92,0,0,0,3.38-2.46,18.69,18.69,0,0,0,1.48-1.6,2.52,2.52,0,0,0,.64-1c.1-.53-.63-.91-.91-.39Z"/><path class="cls-18" d="M170.22,152.93c6.63,3.41,14.67,4.42,20.6.36"/><path class="cls-21" d="M154.94,121.55s1.5,5,3,8.5,3.5-1,4-3.5a35.26,35.26,0,0,0,0-7.5s4.5,5.5,8.5,1.5,4.5-6.5,7-6,5.5,1,8-1.5,9-5.5,8.5-9-5-9.5-10.5-11c-5.31-1.44-11-2.5-16.5,2s-5.5,8-6.5,12S152.44,111.55,154.94,121.55Z"/><path class="cls-23" d="M188.94,102.55s-2,7,2.5,11.5,7.5,2.5,7,7,0,13,1.5,11a31.61,31.61,0,0,0,5.5-9.5c1.5-4.5.5-10.5-1.5-14.5s-2.5-6.5-4.5-9S188.94,99.05,188.94,102.55Z"/><path class="cls-24" d="M191.94,106.05a8.64,8.64,0,0,0,4,5c3.33,2,5.33,3.34,4.67,6.67s1,7.67,1,7.67"/><path class="cls-24" d="M195.94,103.05a7.42,7.42,0,0,1,4.33,4,41.37,41.37,0,0,1,2.67,9"/><path class="cls-24" d="M186.27,103.39s-2.66,5.66-6.66,6-7-3.34-8,.33-1,8-4.34,7-6.66-1.67-7.66,0"/><path class="cls-24" d="M162.61,110.72s5.33-1.33,6-5.67,3.75-6.19,6.33-5c4.33,2,5.67-.66,7.67-1.33s5,2,5,2"/><rect class="cls-25" x="24.29" y="242.43" width="311" height="12.11" rx="2.27"/><path class="cls-18" d="M200.84,232.83s-4.15-2.25-5,.75-3.34,3.44-2.34,5.66c1.17,2.59,4,.84,5.66-.16a12.15,12.15,0,0,0,3-3Z"/><path class="cls-18" d="M198.9,235.08s1.3-5.42,3.79-5.17,3.73.58,5.67.33,5-.08,5.83.67,3,.17,4.11,1.17,2.77,2.5,2.21,4.75-2.21,5-4.15,3.75a5.68,5.68,0,0,0-1.67-.72,21.17,21.17,0,0,0-1.83,1.22c-.8.6-2.84-.67-2.84-.67s-2.13,1.42-3,1.33c-2.22-.22-2.5-1.33-2.5-1.33s-1.83,1.67-3.5,1.17S197,237.83,198.9,235.08Z"/><path class="cls-26" d="M199.69,233.24s-2,3.34-1.17,5.5"/><path class="cls-26" d="M205.52,232.91a7.63,7.63,0,0,0-1.16,6.83"/><path class="cls-26" d="M210.52,232.91a7.36,7.36,0,0,0-.66,7.17"/><path class="cls-26" d="M215,233.08s-.83,4,0,6.5"/><path class="cls-18" d="M158.74,232.83s4.15-2.25,5,.75,3.34,3.44,2.34,5.66c-1.17,2.59-4,.84-5.66-.16a12.15,12.15,0,0,1-3.05-3Z"/><path class="cls-18" d="M160.68,235.08s-1.3-5.42-3.79-5.17-3.73.58-5.67.33-5-.08-5.83.67-3,.17-4.11,1.17-2.77,2.5-2.21,4.75,2.21,5,4.15,3.75a5.68,5.68,0,0,1,1.67-.72,21.17,21.17,0,0,1,1.83,1.22c.8.6,2.84-.67,2.84-.67s2.13,1.42,3,1.33c2.22-.22,2.5-1.33,2.5-1.33s1.83,1.67,3.5,1.17S162.62,237.83,160.68,235.08Z"/><path class="cls-26" d="M159.89,233.24s2,3.34,1.17,5.5"/><path class="cls-26" d="M154.06,232.91a7.63,7.63,0,0,1,1.16,6.83"/><path class="cls-26" d="M149.06,232.91a7.36,7.36,0,0,1,.66,7.17"/><path class="cls-26" d="M144.56,233.08s.83,4,0,6.5"/><polygon class="cls-27" points="241.38 123.64 242.44 239.61 328.42 239.61 355.35 123.64 241.38 123.64"/><path class="cls-28" d="M331.35,239.85a2.94,2.94,0,0,1-2.85,2.58H241.78a2.28,2.28,0,0,1-2.31-2.58l6.44-52.78a2.93,2.93,0,0,1,2.85-2.58h86.72a2.29,2.29,0,0,1,2.32,2.58Z"/><path class="cls-29" d="M335.48,184.49H248.76a2.93,2.93,0,0,0-2.85,2.58l-.28,2.7a2.94,2.94,0,0,1,2.85-2.58H335.2a2.29,2.29,0,0,1,2.32,2.58l.28-2.7A2.29,2.29,0,0,0,335.48,184.49Z"/><circle class="cls-29" cx="291.63" cy="216.33" r="8.25"/><polygon class="cls-30" points="109.2 90.99 124.7 230.49 234.2 230.49 249.7 90.99 109.2 90.99"/><rect class="cls-28" x="121.43" y="158.37" width="116.04" height="75.24" rx="2.86"/><path class="cls-29" d="M234.61,158.37H124.28a2.85,2.85,0,0,0-2.85,2.85v3a2.85,2.85,0,0,1,2.85-2.85H234.61a2.85,2.85,0,0,1,2.85,2.85v-3A2.85,2.85,0,0,0,234.61,158.37Z"/><rect class="cls-31" x="165.81" y="187.54" width="27.26" height="55.3" rx="1.21"/><path class="cls-32" d="M191.87,187.54H167a1.21,1.21,0,0,0-1.21,1.2v2a1.21,1.21,0,0,1,1.21-1.2h24.85a1.21,1.21,0,0,1,1.21,1.2v-2A1.21,1.21,0,0,0,191.87,187.54Z"/><polygon class="cls-33" points="83.88 242.43 60.79 242.43 59.03 201.93 85.64 201.93 83.88 242.43"/><path class="cls-34" d="M84.85,197.63h-1v-1a2.17,2.17,0,0,0-2.17-2.17H63a2.17,2.17,0,0,0-2.17,2.17v1h-1a2.18,2.18,0,0,0-2.17,2.18v3H87v-3A2.19,2.19,0,0,0,84.85,197.63Z"/><polygon class="cls-35" points="58.87 212.43 59.55 228.18 85.11 228.18 85.8 212.43 58.87 212.43"/></g></g></g></svg>