<svg xmlns="http://www.w3.org/2000/svg" xmlns:xlink="http://www.w3.org/1999/xlink" viewBox="0 0 359.64 164.67"><defs><style>.cls-1{isolation:isolate;}.cls-2{fill:url(#linear-gradient);}.cls-3{fill:#1d63aa;}.cls-4{fill:#1a82b9;}.cls-5{fill:#e94fa5;}.cls-6{fill:#fff;}.cls-7{fill:url(#linear-gradient-2);}.cls-8{fill:#145aa6;}.cls-9{fill:#1c77b4;}.cls-10{fill:#6e9ac8;}.cls-11{fill:#d748a1;}.cls-12,.cls-13,.cls-14{mix-blend-mode:multiply;}.cls-12{fill:url(#linear-gradient-3);}.cls-13{fill:url(#linear-gradient-4);}.cls-14{fill:url(#linear-gradient-5);}</style><linearGradient id="linear-gradient" x1="100.99" y1="66.11" x2="100.99" y2="128.01" gradientUnits="userSpaceOnUse"><stop offset="0" stop-color="#1d489e"/><stop offset="1" stop-color="#1e479d"/></linearGradient><linearGradient id="linear-gradient-2" x1="259.04" y1="10.2" x2="259.04" y2="103.32" gradientUnits="userSpaceOnUse"><stop offset="0" stop-color="#1b419a"/><stop offset="1" stop-color="#1e3f97"/></linearGradient><linearGradient id="linear-gradient-3" x1="321.82" y1="87.39" x2="321.82" y2="142.72" gradientUnits="userSpaceOnUse"><stop offset="0" stop-color="#3f8cbf"/><stop offset="0.22" stop-color="#3b83bb"/><stop offset="0.59" stop-color="#2f6bae"/><stop offset="1" stop-color="#1e489d"/></linearGradient><linearGradient id="linear-gradient-4" x1="33.89" y1="20.43" x2="33.89" y2="70" xlink:href="#linear-gradient-3"/><linearGradient id="linear-gradient-5" x1="38.89" y1="122.09" x2="38.89" y2="160.53" xlink:href="#linear-gradient-3"/></defs><title>Asset 5codeblocks</title><g class="cls-1"><g id="Layer_2" data-name="Layer 2"><g id="Layer_1-2" data-name="Layer 1"><rect class="cls-2" x="34.63" y="59.33" width="132.73" height="75.33" rx="3.48"/><path class="cls-3" d="M152.07,68.83a3.75,3.75,0,1,1-3.75-3.75A3.75,3.75,0,0,1,152.07,68.83Z"/><path class="cls-3" d="M141.57,68.83a3.75,3.75,0,1,1-3.75-3.75A3.75,3.75,0,0,1,141.57,68.83Z"/><path class="cls-3" d="M162.57,68.83a3.75,3.75,0,1,1-3.75-3.75A3.75,3.75,0,0,1,162.57,68.83Z"/><path class="cls-4" d="M51.08,87.45l-3.79-1.7v-.58l3.79-1.7v.81L48,85.61v-.3l3.13,1.33Z"/><path class="cls-4" d="M52.19,88.45V82.08H53v6.37Zm3,0V86a1.12,1.12,0,0,0-.3-.8,1.06,1.06,0,0,0-.78-.31,1.1,1.1,0,0,0-.57.15.92.92,0,0,0-.39.39A1,1,0,0,0,53,86l-.33-.19a1.67,1.67,0,0,1,.21-.85,1.57,1.57,0,0,1,.6-.6,1.74,1.74,0,0,1,.86-.22,1.71,1.71,0,0,1,.85.22,1.46,1.46,0,0,1,.58.6,1.67,1.67,0,0,1,.22.88v2.63Z"/><path class="cls-4" d="M56.63,84.94v-.73h2.89v.73Zm1,3.51v-6h.8v6Z"/><path class="cls-4" d="M60.3,88.45V84.21h.8v4.24Zm2.86,0V85.89a1,1,0,0,0-.29-.75A1.12,1.12,0,0,0,61.62,85a1,1,0,0,0-.52.89l-.33-.17a1.64,1.64,0,0,1,.21-.84,1.49,1.49,0,0,1,.58-.56,1.69,1.69,0,0,1,.82-.2,1.67,1.67,0,0,1,.8.2,1.51,1.51,0,0,1,.57.55,1.65,1.65,0,0,1,.21.85v2.73Zm2.86,0V85.89a1,1,0,0,0-1-1,1.07,1.07,0,0,0-.91.48,1,1,0,0,0-.14.54l-.45-.17a1.61,1.61,0,0,1,.26-.84,1.72,1.72,0,0,1,.61-.56,1.74,1.74,0,0,1,.82-.2,1.73,1.73,0,0,1,.83.2,1.53,1.53,0,0,1,.58.55,1.6,1.6,0,0,1,.22.86v2.72Z"/><path class="cls-4" d="M67.92,88.45V82.08h.8v6.37Z"/><path class="cls-5" d="M71.74,88.45V82.08h.8v6.37Z"/><path class="cls-5" d="M75.52,88.53a1.92,1.92,0,0,1-1.06-.29,2.06,2.06,0,0,1-.74-.78,2.36,2.36,0,0,1-.27-1.13,2.32,2.32,0,0,1,.27-1.12,2.08,2.08,0,0,1,.74-.79,1.93,1.93,0,0,1,1.06-.3,1.88,1.88,0,0,1,.86.2,1.72,1.72,0,0,1,.61.56,1.65,1.65,0,0,1,.26.81V87a1.72,1.72,0,0,1-.26.81,1.55,1.55,0,0,1-.61.55A1.73,1.73,0,0,1,75.52,88.53Zm.13-.75a1.22,1.22,0,0,0,1-.41,1.46,1.46,0,0,0,.37-1,1.66,1.66,0,0,0-.17-.75,1.31,1.31,0,0,0-.47-.52,1.33,1.33,0,0,0-.7-.18,1.31,1.31,0,0,0-1.19.7,1.64,1.64,0,0,0-.17.74,1.67,1.67,0,0,0,.17.76,1.33,1.33,0,0,0,.49.51A1.3,1.3,0,0,0,75.65,87.78Zm1.28.67V87.3l.15-1-.15-1v-1h.81v4.24Z"/><path class="cls-5" d="M78.9,88.45V84.21h.81v4.24Zm3,0V86a1.12,1.12,0,0,0-.3-.8,1.06,1.06,0,0,0-.78-.31,1.1,1.1,0,0,0-.57.15.92.92,0,0,0-.39.39,1,1,0,0,0-.14.57l-.34-.19a1.68,1.68,0,0,1,.22-.85,1.57,1.57,0,0,1,.6-.6,1.74,1.74,0,0,1,.86-.22,1.47,1.47,0,0,1,.85.25,1.75,1.75,0,0,1,.8,1.45v2.63Z"/><path class="cls-5" d="M85.54,88.37a1.92,1.92,0,0,1-1.76-1,2.24,2.24,0,0,1-.27-1.1,2.27,2.27,0,0,1,.26-1.08,2,2,0,0,1,.73-.75,1.93,1.93,0,0,1,1-.29,2,2,0,0,1,.89.2,1.48,1.48,0,0,1,.61.55,1.68,1.68,0,0,1,.25.82v1.13a1.59,1.59,0,0,1-.26.81,1.48,1.48,0,0,1-.61.55A1.86,1.86,0,0,1,85.54,88.37Zm0,1.94a2.64,2.64,0,0,1-1.16-.24,2.14,2.14,0,0,1-.81-.68l.53-.53a1.76,1.76,0,0,0,.61.51,2,2,0,0,0,.85.17,1.45,1.45,0,0,0,1-.34,1.17,1.17,0,0,0,.39-.92V87.22l.14-1L87,85.33V84.21h.8v4.07a2.07,2.07,0,0,1-.28,1.06,1.88,1.88,0,0,1-.79.71A2.51,2.51,0,0,1,85.54,90.31Zm.15-2.69a1.42,1.42,0,0,0,.7-.17,1.25,1.25,0,0,0,.46-.48,1.68,1.68,0,0,0,0-1.43,1.15,1.15,0,0,0-.47-.48,1.43,1.43,0,0,0-1.39,0,1.23,1.23,0,0,0-.48.48,1.45,1.45,0,0,0-.17.7,1.53,1.53,0,0,0,.17.72,1.23,1.23,0,0,0,.48.48A1.38,1.38,0,0,0,85.69,87.62Z"/><path class="cls-6" d="M88.86,84.81v-.73h3.79v.73Zm0,2v-.73h3.79v.73Z"/><path class="cls-6" d="M94,84.26l-.2-2.18h.89l-.18,2.18Zm1.45,0-.19-2.18h.89l-.19,2.18Z"/><path class="cls-6" d="M98.68,88.53a2.22,2.22,0,0,1-1.94-1.07,2.17,2.17,0,0,1-.29-1.14,2.15,2.15,0,0,1,.29-1.12,2.13,2.13,0,0,1,1.89-1.08,2,2,0,0,1,1,.27,1.94,1.94,0,0,1,.71.74,2.26,2.26,0,0,1,.25,1.08v.19c0,.07,0,.14,0,.23H97V86h3.14l-.29.26a1.61,1.61,0,0,0-.15-.73,1.12,1.12,0,0,0-.43-.46,1.31,1.31,0,0,0-.67-.17,1.43,1.43,0,0,0-.72.18,1.22,1.22,0,0,0-.48.5,1.52,1.52,0,0,0-.17.76,1.61,1.61,0,0,0,.18.78,1.23,1.23,0,0,0,.5.51,1.48,1.48,0,0,0,.76.19,1.59,1.59,0,0,0,.66-.13,1.34,1.34,0,0,0,.51-.37l.52.52a2.15,2.15,0,0,1-.75.55A2.46,2.46,0,0,1,98.68,88.53Z"/><path class="cls-6" d="M101.5,88.45V84.21h.8v4.24Zm3,0V86a1.12,1.12,0,0,0-.3-.8,1.06,1.06,0,0,0-.78-.31,1.1,1.1,0,0,0-.57.15,1,1,0,0,0-.39.39,1.15,1.15,0,0,0-.14.57l-.33-.19a1.67,1.67,0,0,1,.21-.85,1.64,1.64,0,0,1,.6-.6,1.77,1.77,0,0,1,.86-.22,1.47,1.47,0,0,1,.86.25,1.71,1.71,0,0,1,.79,1.45v2.63Z"/><path class="cls-6" d="M106.27,84.26l-.19-2.18H107l-.19,2.18Zm1.46,0-.19-2.18h.89l-.2,2.18Z"/><path class="cls-4" d="M109.55,84.28v-.81l3.79,1.7v.58l-3.79,1.7v-.81l3.13-1.33v.3Z"/><path class="cls-4" d="M118.17,87.45l-3.79-1.7v-.58l3.79-1.7v.81L115,85.61v-.3l3.13,1.33Z"/><path class="cls-4" d="M119.28,88.45V82.08h.8v6.37Zm3,0V86a1.12,1.12,0,0,0-.3-.8,1.14,1.14,0,0,0-1.35-.16,1,1,0,0,0-.4.39,1.15,1.15,0,0,0-.14.57l-.33-.19a1.58,1.58,0,0,1,.22-.85,1.62,1.62,0,0,1,.59-.6,1.81,1.81,0,0,1,.87-.22,1.71,1.71,0,0,1,.85.22,1.52,1.52,0,0,1,.58.6,1.77,1.77,0,0,1,.22.88v2.63Z"/><path class="cls-4" d="M126.12,88.53a2.17,2.17,0,0,1-1.14-.29,2.14,2.14,0,0,1-.8-.78,2.17,2.17,0,0,1-.29-1.14,2.15,2.15,0,0,1,.29-1.12,2.13,2.13,0,0,1,1.89-1.08,2,2,0,0,1,1,.27,1.87,1.87,0,0,1,.71.74,2.26,2.26,0,0,1,.25,1.08v.19c0,.07,0,.14,0,.23h-3.57V86h3.14l-.29.26a1.61,1.61,0,0,0-.15-.73,1.12,1.12,0,0,0-.43-.46,1.28,1.28,0,0,0-.67-.17,1.43,1.43,0,0,0-.72.18,1.22,1.22,0,0,0-.48.5,1.64,1.64,0,0,0-.17.76,1.61,1.61,0,0,0,.18.78,1.25,1.25,0,0,0,.51.51,1.44,1.44,0,0,0,.75.19,1.59,1.59,0,0,0,.66-.13,1.34,1.34,0,0,0,.51-.37l.52.52a2.15,2.15,0,0,1-.75.55A2.42,2.42,0,0,1,126.12,88.53Z"/><path class="cls-4" d="M130.74,88.53a1.92,1.92,0,0,1-1.06-.29,2.06,2.06,0,0,1-.74-.78,2.36,2.36,0,0,1-.27-1.13,2.32,2.32,0,0,1,.27-1.12,2.08,2.08,0,0,1,.74-.79,1.93,1.93,0,0,1,1.06-.3,1.85,1.85,0,0,1,.86.2,1.72,1.72,0,0,1,.61.56,1.65,1.65,0,0,1,.26.81V87a1.72,1.72,0,0,1-.26.81,1.55,1.55,0,0,1-.61.55A1.73,1.73,0,0,1,130.74,88.53Zm.13-.75a1.22,1.22,0,0,0,1-.41,1.46,1.46,0,0,0,.37-1,1.66,1.66,0,0,0-.17-.75,1.31,1.31,0,0,0-.47-.52,1.36,1.36,0,0,0-1.89.52,1.64,1.64,0,0,0-.17.74,1.67,1.67,0,0,0,.17.76,1.33,1.33,0,0,0,.49.51A1.3,1.3,0,0,0,130.87,87.78Zm1.28.67V87.3l.15-1-.15-1v-1H133v4.24Z"/><path class="cls-4" d="M135.91,88.53a1.89,1.89,0,0,1-1-.29,2,2,0,0,1-.73-.78,2.36,2.36,0,0,1-.27-1.13,2.32,2.32,0,0,1,.27-1.12,2.06,2.06,0,0,1,.73-.79,2,2,0,0,1,1.91-.1,1.75,1.75,0,0,1,.62.56,1.56,1.56,0,0,1,.26.81V87a1.61,1.61,0,0,1-.87,1.36A1.8,1.8,0,0,1,135.91,88.53Zm.13-.75a1.25,1.25,0,0,0,.7-.19,1.39,1.39,0,0,0,.48-.51,1.84,1.84,0,0,0,0-1.5,1.31,1.31,0,0,0-.48-.51,1.25,1.25,0,0,0-.7-.19,1.33,1.33,0,0,0-.7.18,1.3,1.3,0,0,0-.48.51,1.76,1.76,0,0,0,0,1.51,1.18,1.18,0,0,0,.48.51A1.27,1.27,0,0,0,136,87.78Zm2.1.67h-.81V87.3l.15-1-.15-1V82.08h.81Z"/><path class="cls-4" d="M139.24,84.28v-.81l3.78,1.7v.58l-3.78,1.7v-.81l3.12-1.33v.3Z"/><path class="cls-4" d="M58.46,98.14l-3.79-1.69v-.59l3.79-1.69V95L55.33,96.3V96l3.13,1.33Z"/><path class="cls-4" d="M59.57,99.14V94.91h.8v4.23Zm2.86,0V96.58a1,1,0,0,0-.29-.74,1,1,0,0,0-.73-.28,1.11,1.11,0,0,0-.52.13,1,1,0,0,0-.38.35,1,1,0,0,0-.14.54L60,96.41a1.64,1.64,0,0,1,.21-.84,1.46,1.46,0,0,1,.58-.55,1.58,1.58,0,0,1,.82-.2,1.66,1.66,0,0,1,.8.19,1.51,1.51,0,0,1,.57.55,1.65,1.65,0,0,1,.21.85v2.73Zm2.86,0V96.58a1,1,0,0,0-.29-.74,1,1,0,0,0-.72-.28,1.19,1.19,0,0,0-.53.13,1.06,1.06,0,0,0-.38.35,1,1,0,0,0-.14.54l-.45-.17a1.52,1.52,0,0,1,.26-.84,1.61,1.61,0,0,1,.61-.55,1.63,1.63,0,0,1,.82-.2,1.75,1.75,0,0,1,.83.19,1.53,1.53,0,0,1,.58.55,1.6,1.6,0,0,1,.22.86v2.72Z"/><path class="cls-4" d="M69.15,99.23A2.31,2.31,0,0,1,68,98.94a2.22,2.22,0,0,1-.79-.79,2.15,2.15,0,0,1-.3-1.13,2.26,2.26,0,0,1,.29-1.13,2.15,2.15,0,0,1,1.89-1.07,2.11,2.11,0,0,1,1,.26,1.94,1.94,0,0,1,.71.74,2.39,2.39,0,0,1,.25,1.08,1.28,1.28,0,0,1,0,.19,2.23,2.23,0,0,1,0,.23H67.47v-.67h3.15l-.3.26a1.61,1.61,0,0,0-.15-.73,1.06,1.06,0,0,0-.43-.46,1.24,1.24,0,0,0-.66-.16,1.54,1.54,0,0,0-.73.17,1.36,1.36,0,0,0-.48.5,1.67,1.67,0,0,0-.17.76,1.61,1.61,0,0,0,.18.78,1.34,1.34,0,0,0,.51.52,1.55,1.55,0,0,0,.76.18,1.57,1.57,0,0,0,.65-.13,1.24,1.24,0,0,0,.51-.37l.52.53a2.25,2.25,0,0,1-.75.54A2.41,2.41,0,0,1,69.15,99.23Z"/><path class="cls-4" d="M71.45,95.64v-.73h2.88v.73Zm1,3.5v-6h.8v6Z"/><path class="cls-4" d="M76.78,99.23a2,2,0,0,1-1-.29,2.16,2.16,0,0,1-.74-.79A2.32,2.32,0,0,1,74.72,97,2.36,2.36,0,0,1,75,95.9a2.16,2.16,0,0,1,.74-.79,1.89,1.89,0,0,1,1-.29,1.73,1.73,0,0,1,.86.2,1.48,1.48,0,0,1,.61.55,1.56,1.56,0,0,1,.26.81v1.28a1.71,1.71,0,0,1-.25.81,1.64,1.64,0,0,1-.61.56A1.92,1.92,0,0,1,76.78,99.23Zm.14-.76a1.24,1.24,0,0,0,1-.41,1.49,1.49,0,0,0,.36-1,1.55,1.55,0,0,0-.17-.76,1.2,1.2,0,0,0-.46-.51,1.27,1.27,0,0,0-.7-.19,1.37,1.37,0,0,0-.71.19,1.3,1.3,0,0,0-.48.51,1.65,1.65,0,0,0,0,1.5,1.24,1.24,0,0,0,.48.51A1.34,1.34,0,0,0,76.92,98.47Zm1.27.67V98l.15-1-.15-1v-1H79v4.23Z"/><path class="cls-5" d="M84,99.23a2.15,2.15,0,0,1-1.13-.3,2,2,0,0,1-.79-.8A2.09,2.09,0,0,1,81.74,97,2.16,2.16,0,0,1,82,95.89a2,2,0,0,1,.79-.78A2.14,2.14,0,0,1,84,94.82a2.23,2.23,0,0,1,.9.18,2.11,2.11,0,0,1,.73.53l-.54.53a1.3,1.3,0,0,0-.48-.35,1.54,1.54,0,0,0-.61-.12,1.43,1.43,0,0,0-.72.18,1.33,1.33,0,0,0-.49.51,1.47,1.47,0,0,0-.18.74,1.5,1.5,0,0,0,.18.74,1.31,1.31,0,0,0,.49.5,1.34,1.34,0,0,0,.72.19,1.51,1.51,0,0,0,.61-.12,1.42,1.42,0,0,0,.49-.35l.53.53a2.11,2.11,0,0,1-.72.53A2.32,2.32,0,0,1,84,99.23Z"/><path class="cls-5" d="M86.37,99.14V92.78h.8v6.36Zm3,0V96.67a1.11,1.11,0,0,0-.29-.79,1,1,0,0,0-.78-.32,1.05,1.05,0,0,0-.57.15,1,1,0,0,0-.4.39,1.2,1.2,0,0,0-.14.57l-.33-.19A1.66,1.66,0,0,1,87.65,95a1.81,1.81,0,0,1,.87-.21,1.7,1.7,0,0,1,.85.21,1.52,1.52,0,0,1,.58.6,1.79,1.79,0,0,1,.21.88v2.63Z"/><path class="cls-5" d="M93.05,99.23a2,2,0,0,1-1-.29,2.08,2.08,0,0,1-.74-.79A2.22,2.22,0,0,1,91,97a2.26,2.26,0,0,1,.28-1.13,2.08,2.08,0,0,1,.74-.79,1.89,1.89,0,0,1,1-.29,1.73,1.73,0,0,1,.86.2,1.54,1.54,0,0,1,.61.55,1.56,1.56,0,0,1,.26.81v1.28A1.6,1.6,0,0,1,93.92,99,1.92,1.92,0,0,1,93.05,99.23Zm.14-.76a1.25,1.25,0,0,0,1-.41,1.49,1.49,0,0,0,.36-1,1.55,1.55,0,0,0-.17-.76,1.25,1.25,0,0,0-1.16-.7,1.37,1.37,0,0,0-.71.19,1.3,1.3,0,0,0-.48.51,1.65,1.65,0,0,0,0,1.5,1.18,1.18,0,0,0,.48.51A1.34,1.34,0,0,0,93.19,98.47Zm1.27.67V98l.15-1-.15-1v-1h.81v4.23Z"/><path class="cls-5" d="M96.44,99.14V94.91h.8v4.23Zm.8-2.41-.3-.14a2,2,0,0,1,.37-1.29,1.29,1.29,0,0,1,1.08-.48,1.4,1.4,0,0,1,.58.11,1.25,1.25,0,0,1,.48.37l-.53.54a.8.8,0,0,0-.29-.2.89.89,0,0,0-.38-.07,1,1,0,0,0-.73.29A1.18,1.18,0,0,0,97.24,96.73Z"/><path class="cls-5" d="M101.27,99.23a2.15,2.15,0,0,1-.68-.1,1.89,1.89,0,0,1-1-.68l.51-.52a1.56,1.56,0,0,0,.54.43,1.6,1.6,0,0,0,.67.14,1.13,1.13,0,0,0,.58-.13.41.41,0,0,0,.21-.36.45.45,0,0,0-.17-.37,1.64,1.64,0,0,0-.42-.21c-.17-.06-.35-.11-.55-.16a3.71,3.71,0,0,1-.55-.22,1.15,1.15,0,0,1-.42-.37,1,1,0,0,1-.16-.62,1.21,1.21,0,0,1,.18-.66,1.11,1.11,0,0,1,.52-.43,2,2,0,0,1,.81-.15,2.11,2.11,0,0,1,.89.17,1.53,1.53,0,0,1,.63.52l-.51.52a1.28,1.28,0,0,0-.45-.36,1.38,1.38,0,0,0-.59-.12,1,1,0,0,0-.53.12.38.38,0,0,0-.18.33.41.41,0,0,0,.16.33,1.57,1.57,0,0,0,.43.2l.54.16a2.91,2.91,0,0,1,.55.23,1.18,1.18,0,0,1,.42.38,1.09,1.09,0,0,1,.16.63,1.17,1.17,0,0,1-.42.95A1.73,1.73,0,0,1,101.27,99.23Z"/><path class="cls-5" d="M105.68,99.23a2.27,2.27,0,0,1-1.14-.29A2.15,2.15,0,0,1,103.45,97a2.16,2.16,0,0,1,.29-1.13,2.15,2.15,0,0,1,1.89-1.07,2,2,0,0,1,1,.26,1.87,1.87,0,0,1,.71.74,2.27,2.27,0,0,1,.26,1.08c0,.06,0,.12,0,.19a2.23,2.23,0,0,1,0,.23H104v-.67h3.14l-.29.26a1.61,1.61,0,0,0-.15-.73,1.06,1.06,0,0,0-.43-.46,1.28,1.28,0,0,0-.67-.16,1.53,1.53,0,0,0-.72.17,1.22,1.22,0,0,0-.48.5,1.67,1.67,0,0,0-.17.76,1.61,1.61,0,0,0,.18.78,1.34,1.34,0,0,0,.51.52,1.54,1.54,0,0,0,.75.18,1.59,1.59,0,0,0,.66-.13,1.24,1.24,0,0,0,.51-.37l.52.53a2.25,2.25,0,0,1-.75.54A2.43,2.43,0,0,1,105.68,99.23Z"/><path class="cls-5" d="M108,95.64v-.73h2.89v.73Zm1,3.5v-6h.8v6Z"/><path class="cls-6" d="M111.58,95.5v-.73h3.79v.73Zm0,2v-.73h3.79v.73Z"/><path class="cls-6" d="M116.7,95l-.2-2.17h.89L117.2,95Zm1.45,0L118,92.78h.89L118.66,95Z"/><path class="cls-6" d="M122.51,99.23a2.39,2.39,0,0,1-1.22-.32,2.2,2.2,0,0,1-.86-.85,2.26,2.26,0,0,1-.32-1.21V93H121v3.88a1.65,1.65,0,0,0,.2.85,1.48,1.48,0,0,0,.56.55,1.59,1.59,0,0,0,.79.19,1.57,1.57,0,0,0,.79-.19,1.53,1.53,0,0,0,.55-.55,1.74,1.74,0,0,0,.2-.84V93h.84v3.91a2.34,2.34,0,0,1-.31,1.21,2.28,2.28,0,0,1-.85.84A2.34,2.34,0,0,1,122.51,99.23Z"/><path class="cls-6" d="M125.72,93.72V93h5v.77Zm2.1,5.42v-6h.84v6Z"/><path class="cls-6" d="M131.75,99.14V93h.84v6.19Zm.57-5.42V93h3.38v.77Zm0,2.7v-.77h3.23v.77Z"/><path class="cls-6" d="M136.37,97.26v-.77h2.93v.77Z"/><path class="cls-6" d="M142.34,99.23a2.34,2.34,0,0,1-1.09-.24,1.66,1.66,0,0,1-.72-.64,1.63,1.63,0,0,1-.27-.92,1.77,1.77,0,0,1,.17-.77,1.68,1.68,0,0,1,.47-.59,1.84,1.84,0,0,1,.73-.35l0,.24a1.44,1.44,0,0,1-.6-.32,1.46,1.46,0,0,1-.37-.52,1.64,1.64,0,0,1,.1-1.48,1.54,1.54,0,0,1,.64-.57,2,2,0,0,1,.92-.21,2,2,0,0,1,.93.21,1.65,1.65,0,0,1,.63.57,1.59,1.59,0,0,1,.23.85,1.51,1.51,0,0,1-.13.63,1.59,1.59,0,0,1-.37.52A1.55,1.55,0,0,1,143,96l0-.24a1.81,1.81,0,0,1,.74.35,1.68,1.68,0,0,1,.47.59,1.77,1.77,0,0,1,.16.77,1.69,1.69,0,0,1-.25.92,1.75,1.75,0,0,1-.73.64A2.37,2.37,0,0,1,142.34,99.23Zm0-.76a1.38,1.38,0,0,0,.65-.15,1.17,1.17,0,0,0,.45-.4,1.1,1.1,0,0,0,.16-.6,1,1,0,0,0-.16-.58,1.19,1.19,0,0,0-.45-.41,1.38,1.38,0,0,0-.65-.15,1.36,1.36,0,0,0-.65.15,1.19,1.19,0,0,0-.45.41,1,1,0,0,0-.17.58,1.11,1.11,0,0,0,.17.6,1.17,1.17,0,0,0,.45.4A1.36,1.36,0,0,0,142.34,98.47Zm0-2.94a1,1,0,0,0,.72-1.69,1,1,0,0,0-.72-.26,1,1,0,0,0-.72.26,1,1,0,0,0,0,1.41A1,1,0,0,0,142.34,95.53Z"/><path class="cls-6" d="M145.27,95l-.2-2.17H146L145.78,95Zm1.45,0-.19-2.17h.9l-.2,2.17Z"/><path class="cls-4" d="M148.55,95v-.81l3.78,1.69v.59l-3.78,1.69v-.81L151.68,96v.3Z"/><rect class="cls-7" x="177.51" width="163.08" height="113.33" rx="3.82"/><path class="cls-8" d="M321.4,9.49a3.75,3.75,0,1,1-3.75-3.75A3.75,3.75,0,0,1,321.4,9.49Z"/><path class="cls-8" d="M310.9,9.49a3.75,3.75,0,1,1-3.74-3.75A3.74,3.74,0,0,1,310.9,9.49Z"/><path class="cls-8" d="M331.9,9.49a3.75,3.75,0,1,1-3.75-3.75A3.75,3.75,0,0,1,331.9,9.49Z"/><rect class="cls-9" x="192.99" y="19.51" width="12.95" height="5.23"/><rect class="cls-9" x="192.99" y="68.31" width="26.55" height="5.23"/><rect class="cls-10" x="224.4" y="68.31" width="70.91" height="5.23"/><rect class="cls-9" x="198.17" y="80.51" width="16.84" height="5.23"/><rect class="cls-10" x="219.86" y="80.51" width="89.05" height="5.23"/><rect class="cls-11" x="198.17" y="92.71" width="16.84" height="5.23"/><rect class="cls-10" x="219.86" y="92.71" width="89.05" height="5.23"/><rect class="cls-9" x="198.17" y="31.71" width="12.95" height="5.23"/><rect class="cls-11" x="215.98" y="31.71" width="38.86" height="5.23"/><rect class="cls-10" x="259.69" y="31.71" width="65.41" height="5.23"/><rect class="cls-11" x="198.17" y="43.91" width="17.49" height="5.23"/><rect class="cls-10" x="220.51" y="43.91" width="28.5" height="5.23"/><rect class="cls-9" x="253.86" y="43.91" width="71.24" height="5.23"/><rect class="cls-11" x="207.24" y="56.11" width="17.48" height="5.23"/><rect class="cls-10" x="229.58" y="56.11" width="28.5" height="5.23"/><rect class="cls-10" x="262.93" y="56.11" width="44.69" height="5.23"/><rect class="cls-12" x="284" y="81.33" width="75.64" height="67.33" rx="3.11"/><rect class="cls-13" y="15" width="67.78" height="60.33" rx="2.79"/><rect class="cls-14" x="15.33" y="117.88" width="47.11" height="46.79" rx="2.79"/></g></g></g></svg>