<svg xmlns="http://www.w3.org/2000/svg" xmlns:xlink="http://www.w3.org/1999/xlink" viewBox="0 0 159.15 117.88"><defs><style>.cls-1{fill:url(#Áåçûìÿííûé_ãðàäèåíò_33);}.cls-2{fill:url(#Áåçûìÿííûé_ãðàäèåíò_33-2);}.cls-3{fill:url(#Áåçûìÿííûé_ãðàäèåíò_33-3);}.cls-4{fill:#0c0730;opacity:0.6;}.cls-5{fill:url(#Áåçûìÿííûé_ãðàäèåíò_33-4);}.cls-6{fill:url(#Áåçûìÿííûé_ãðàäèåíò_113);}.cls-7{fill:url(#Áåçûìÿííûé_ãðàäèåíò_109);}.cls-8{fill:url(#Áåçûìÿííûé_ãðàäèåíò_343);}.cls-29,.cls-9{fill:#fff;}.cls-10,.cls-14{opacity:0.4;}.cls-11,.cls-14,.cls-15{fill:#10063e;}.cls-12{fill:url(#Áåçûìÿííûé_ãðàäèåíò_343-2);}.cls-13{fill:url(#Áåçûìÿííûé_ãðàäèåíò_441);}.cls-15,.cls-17,.cls-29{opacity:0.5;}.cls-16{fill:url(#Áåçûìÿííûé_ãðàäèåíò_343-3);}.cls-18{fill:#e7975b;}.cls-19{fill:#ee3292;}.cls-20{fill:url(#Áåçûìÿííûé_ãðàäèåíò_33-5);}.cls-21{fill:url(#Áåçûìÿííûé_ãðàäèåíò_199);}.cls-22{fill:url(#Áåçûìÿííûé_ãðàäèåíò_144);}.cls-23{fill:url(#Áåçûìÿííûé_ãðàäèåíò_483);}.cls-24{fill:url(#Áåçûìÿííûé_ãðàäèåíò_483-2);}.cls-25{fill:url(#Áåçûìÿííûé_ãðàäèåíò_193);}.cls-26{fill:url(#Áåçûìÿííûé_ãðàäèåíò_223);}.cls-27{fill:#180b77;}.cls-28{fill:url(#Áåçûìÿííûé_ãðàäèåíò_193-2);}</style><linearGradient id="Áåçûìÿííûé_ãðàäèåíò_33" x1="147.31" y1="97.77" x2="159.15" y2="97.77" gradientUnits="userSpaceOnUse"><stop offset="0" stop-color="#e39a65"/><stop offset="1" stop-color="#e75f8d"/></linearGradient><linearGradient id="Áåçûìÿííûé_ãðàäèåíò_33-2" x1="131.1" y1="81.55" x2="150.99" y2="81.55" xlink:href="#Áåçûìÿííûé_ãðàäèåíò_33"/><linearGradient id="Áåçûìÿííûé_ãðàäèåíò_33-3" x1="0" y1="88.21" x2="19.88" y2="88.21" xlink:href="#Áåçûìÿííûé_ãðàäèåíò_33"/><linearGradient id="Áåçûìÿííûé_ãðàäèåíò_33-4" x1="23.15" y1="86.93" x2="129.26" y2="86.93" xlink:href="#Áåçûìÿííûé_ãðàäèåíò_33"/><radialGradient id="Áåçûìÿííûé_ãðàäèåíò_113" cx="81.76" cy="8.37" r="81.04" gradientUnits="userSpaceOnUse"><stop offset="0" stop-color="#e39a65"/><stop offset="0.47" stop-color="#ad2a91"/><stop offset="0.62" stop-color="#801b89"/><stop offset="0.74" stop-color="#5c0f82"/><stop offset="0.8" stop-color="#1a0d6f"/></radialGradient><radialGradient id="Áåçûìÿííûé_ãðàäèåíò_109" cx="32.19" cy="73.45" r="88.62" gradientUnits="userSpaceOnUse"><stop offset="0" stop-color="#e39a65"/><stop offset="0.47" stop-color="#ad2a91"/><stop offset="0.58" stop-color="#801b89"/><stop offset="0.68" stop-color="#5c0f82"/><stop offset="0.74" stop-color="#1a0d6f"/></radialGradient><radialGradient id="Áåçûìÿííûé_ãðàäèåíò_343" cx="40.34" cy="55.67" r="79.47" gradientUnits="userSpaceOnUse"><stop offset="0" stop-color="#e39a65"/><stop offset="0.47" stop-color="#ad2a91"/><stop offset="0.61" stop-color="#801b89"/><stop offset="0.73" stop-color="#5c0f82"/><stop offset="1" stop-color="#321786"/></radialGradient><radialGradient id="Áåçûìÿííûé_ãðàäèåíò_343-2" cx="60.14" cy="25.27" r="81.06" xlink:href="#Áåçûìÿííûé_ãðàäèåíò_343"/><linearGradient id="Áåçûìÿííûé_ãðàäèåíò_441" x1="69.05" y1="46.55" x2="134" y2="46.55" gradientUnits="userSpaceOnUse"><stop offset="0" stop-color="#321786"/><stop offset="1" stop-color="#5c0f82"/></linearGradient><radialGradient id="Áåçûìÿííûé_ãðàäèåíò_343-3" cx="30.55" cy="7.96" r="126.25" xlink:href="#Áåçûìÿííûé_ãðàäèåíò_343"/><linearGradient id="Áåçûìÿííûé_ãðàäèåíò_33-5" x1="24.76" y1="55.44" x2="52.63" y2="55.44" xlink:href="#Áåçûìÿííûé_ãðàäèåíò_33"/><radialGradient id="Áåçûìÿííûé_ãðàäèåíò_199" cx="27.23" cy="32.71" r="60.01" gradientUnits="userSpaceOnUse"><stop offset="0" stop-color="#e39a65"/><stop offset="0.15" stop-color="#ad2a91"/><stop offset="0.41" stop-color="#321786"/><stop offset="0.93" stop-color="#321786"/></radialGradient><linearGradient id="Áåçûìÿííûé_ãðàäèåíò_144" x1="28.29" y1="25.27" x2="49.82" y2="25.27" gradientUnits="userSpaceOnUse"><stop offset="0" stop-color="#e39a65"/><stop offset="0.25" stop-color="#ad2a91"/><stop offset="0.56" stop-color="#321786"/></linearGradient><linearGradient id="Áåçûìÿííûé_ãðàäèåíò_483" x1="30.31" y1="24.18" x2="47.8" y2="24.18" gradientUnits="userSpaceOnUse"><stop offset="0" stop-color="#461c89"/><stop offset="1" stop-color="#ad2a91"/></linearGradient><linearGradient id="Áåçûìÿííûé_ãðàäèåíò_483-2" x1="29.9" y1="24.18" x2="47.39" y2="24.18" xlink:href="#Áåçûìÿííûé_ãðàäèåíò_483"/><linearGradient id="Áåçûìÿííûé_ãðàäèåíò_193" x1="30.31" y1="21.88" x2="52.36" y2="21.88" gradientUnits="userSpaceOnUse"><stop offset="0" stop-color="#181060"/><stop offset="0.22" stop-color="#1a1061"/><stop offset="0.33" stop-color="#221064"/><stop offset="0.42" stop-color="#301069"/><stop offset="0.5" stop-color="#431071"/><stop offset="0.56" stop-color="#5b117b"/><stop offset="0.61" stop-color="#6f1183"/><stop offset="0.66" stop-color="#8b307a"/><stop offset="0.73" stop-color="#ac556f"/><stop offset="0.8" stop-color="#c67266"/><stop offset="0.87" stop-color="#d88660"/><stop offset="0.93" stop-color="#e3935c"/><stop offset="1" stop-color="#e7975b"/></linearGradient><radialGradient id="Áåçûìÿííûé_ãðàäèåíò_223" cx="25.61" cy="19.18" r="39.26" gradientUnits="userSpaceOnUse"><stop offset="0" stop-color="#e39a65"/><stop offset="0.25" stop-color="#ad2a91"/><stop offset="0.74" stop-color="#321786"/></radialGradient><linearGradient id="Áåçûìÿííûé_ãðàäèåíò_193-2" x1="37.67" y1="28.99" x2="40.72" y2="28.99" xlink:href="#Áåçûìÿííûé_ãðàäèåíò_193"/></defs><title>Asset 10computer</title><g id="Layer_2" data-name="Layer 2"><g id="Layer_1-2" data-name="Layer 1"><path class="cls-1" d="M153.23,101.25a2.6,2.6,0,0,1-1.27-.34l-4.26-2.46a.79.79,0,0,1-.39-.68.81.81,0,0,1,.39-.69L152,94.62a2.54,2.54,0,0,1,2.53,0l4.26,2.46a.79.79,0,0,1,.4.69.78.78,0,0,1-.4.68l-4.26,2.46A2.56,2.56,0,0,1,153.23,101.25Zm0-6.29a1.83,1.83,0,0,0-.93.25L148,97.67a.1.1,0,0,0,0,.1.09.09,0,0,0,0,.09l4.26,2.46h0a1.85,1.85,0,0,0,1.85,0l4.26-2.46a.1.1,0,0,0,.06-.09.11.11,0,0,0-.06-.1l-4.26-2.46A1.77,1.77,0,0,0,153.23,95Z"/><path class="cls-2" d="M141,87.29a4.07,4.07,0,0,1-2-.55l-7.33-4.23a1.11,1.11,0,0,1,0-1.93L139,76.35a4.13,4.13,0,0,1,4.11,0l7.33,4.23a1.11,1.11,0,0,1,0,1.93l-7.33,4.23A4.11,4.11,0,0,1,141,87.29Zm-1.71-1.13a3.44,3.44,0,0,0,3.43,0l7.33-4.23a.44.44,0,0,0,.22-.39.42.42,0,0,0-.22-.37l-7.33-4.24a3.44,3.44,0,0,0-3.43,0L132,81.17a.43.43,0,0,0,0,.75Z"/><path class="cls-3" d="M9.94,94a4,4,0,0,1-2-.55L.56,89.17a1.11,1.11,0,0,1,0-1.93L7.89,83A4.11,4.11,0,0,1,12,83l7.33,4.23a1.11,1.11,0,0,1,0,1.93L12,93.4A4,4,0,0,1,9.94,94Zm0-10.81a3.44,3.44,0,0,0-1.71.45L.89,87.83a.43.43,0,0,0-.21.38.45.45,0,0,0,.21.38l7.34,4.23h0a3.44,3.44,0,0,0,3.43,0L19,88.59a.46.46,0,0,0,.22-.38.44.44,0,0,0-.22-.38l-7.33-4.24A3.51,3.51,0,0,0,9.94,83.14Z"/><path class="cls-4" d="M84.18,112.42,31.76,82.15c-.76-.44-.67-1.21.21-1.72L65.62,61a3.31,3.31,0,0,1,3-.13L121,91.15c.76.44.67,1.21-.22,1.72L87.16,112.29A3.31,3.31,0,0,1,84.18,112.42Z"/><path class="cls-5" d="M85.38,117.88a3.35,3.35,0,0,1-1.65-.39h0L23.9,83a1.34,1.34,0,0,1-.75-1.14,1.72,1.72,0,0,1,1-1.41L64.93,56.51a4.07,4.07,0,0,1,3.74-.14L128.5,90.91a1.34,1.34,0,0,1,.76,1.14,1.73,1.73,0,0,1-1,1.41L87.47,117.35A4.24,4.24,0,0,1,85.38,117.88ZM67,56.66a3.73,3.73,0,0,0-1.76.43L24.49,81c-.42.24-.67.54-.67.82a.72.72,0,0,0,.42.56l59.83,34.54h0a3.46,3.46,0,0,0,3.06-.14l40.79-23.9c.41-.24.66-.54.66-.82a.72.72,0,0,0-.42-.56L68.33,57A2.74,2.74,0,0,0,67,56.66Z"/><path class="cls-6" d="M134.94,40.41,82.73,10.26a1.38,1.38,0,0,0-1.07-.15h0l-1,.34.34.08a1.9,1.9,0,0,0-.32.6L68.91,49.46a2.3,2.3,0,0,0,1,2.58l52.22,30.15a1.8,1.8,0,0,0,.38.16l-.13.28.93-.33h0a1.48,1.48,0,0,0,.84-1L135.9,43A2.3,2.3,0,0,0,134.94,40.41Z"/><path class="cls-7" d="M120.21,83.62l0,0L68.65,53.87a3.27,3.27,0,0,0-3,.12L32.37,73.23l-1.11-.43.31,1.56h0a1,1,0,0,0,.5.63L84.12,105a3.27,3.27,0,0,0,3-.13l33.41-19.28a1.37,1.37,0,0,0,.71-.83h0l.32-1.51Z"/><path class="cls-8" d="M84.18,103.67,31.76,73.4c-.76-.44-.67-1.21.21-1.72L65.62,52.26a3.31,3.31,0,0,1,3-.13L121,82.4c.76.44.67,1.21-.22,1.72L87.16,103.54A3.31,3.31,0,0,1,84.18,103.67Z"/><path class="cls-9" d="M120.8,83.71,87.16,103.13a3.31,3.31,0,0,1-3,.13L31.76,73a1,1,0,0,1-.48-.54.82.82,0,0,0,.48,1l52.42,30.27a3.31,3.31,0,0,0,3-.13L120.8,84.12c.59-.34.82-.79.7-1.18A1.4,1.4,0,0,1,120.8,83.71Z"/><g class="cls-10"><path class="cls-11" d="M56.76,68.49l-1.77-1c-.14-.08-.12-.23,0-.32l2.09-1.21a.65.65,0,0,1,.56,0l1.77,1c.14.08.12.23,0,.32l-2.09,1.21A.65.65,0,0,1,56.76,68.49Z"/><path class="cls-11" d="M59.5,70.07l-1.77-1c-.15-.09-.13-.23,0-.32l2.09-1.21a.57.57,0,0,1,.55,0l1.77,1c.14.08.12.22,0,.32L60.05,70A.6.6,0,0,1,59.5,70.07Z"/><path class="cls-11" d="M62.23,71.65l-1.77-1c-.14-.08-.12-.22,0-.32l2.09-1.2a.6.6,0,0,1,.55,0l1.77,1c.14.08.13.22,0,.32l-2.09,1.2A.6.6,0,0,1,62.23,71.65Z"/><path class="cls-11" d="M66,70.34l-1.77-1c-.14-.08-.12-.23,0-.32L66,68a.62.62,0,0,1,.56,0l1.77,1c.14.08.12.22,0,.32l-1.76,1A.63.63,0,0,1,66,70.34Z"/><path class="cls-11" d="M68.74,71.92,67,70.9c-.14-.08-.12-.23,0-.32l1.76-1a.6.6,0,0,1,.55,0l1.77,1c.14.09.12.23,0,.32l-1.75,1A.65.65,0,0,1,68.74,71.92Z"/><path class="cls-11" d="M71.48,73.5l-1.77-1c-.15-.09-.13-.23,0-.32l1.75-1a.63.63,0,0,1,.55,0l1.77,1c.15.08.13.23,0,.32l-1.75,1A.6.6,0,0,1,71.48,73.5Z"/><path class="cls-11" d="M74.21,75.08l-1.77-1c-.14-.08-.13-.22,0-.32l1.75-1a.65.65,0,0,1,.56,0l1.77,1c.14.08.12.23,0,.32l-1.76,1A.6.6,0,0,1,74.21,75.08Z"/><path class="cls-11" d="M76.94,76.65l-1.77-1c-.14-.08-.12-.22,0-.32l1.76-1a.57.57,0,0,1,.55,0l1.77,1c.14.08.12.22,0,.32l-1.75,1A.59.59,0,0,1,76.94,76.65Z"/><path class="cls-11" d="M79.67,78.23l-1.77-1c-.14-.08-.12-.23,0-.32l1.76-1a.6.6,0,0,1,.55,0l1.77,1c.14.08.13.22,0,.32l-1.75,1A.65.65,0,0,1,79.67,78.23Z"/><path class="cls-11" d="M82.41,79.81l-1.77-1c-.14-.08-.13-.23,0-.32l1.75-1a.62.62,0,0,1,.56,0l1.77,1c.14.09.12.23,0,.32l-1.76,1A.63.63,0,0,1,82.41,79.81Z"/><path class="cls-11" d="M85.14,81.39l-1.77-1c-.14-.09-.12-.23,0-.32l1.75-1a.65.65,0,0,1,.56,0l1.77,1c.14.08.12.23,0,.32l-1.75,1A.62.62,0,0,1,85.14,81.39Z"/><path class="cls-11" d="M87.87,83l-1.77-1c-.14-.08-.12-.22,0-.32l1.76-1a.63.63,0,0,1,.55,0l1.77,1c.14.08.13.23,0,.32l-1.75,1A.62.62,0,0,1,87.87,83Z"/><path class="cls-11" d="M90.61,84.54l-1.77-1c-.14-.08-.13-.22,0-.32l1.75-1a.59.59,0,0,1,.56,0l1.76,1c.15.08.13.22,0,.32l-1.75,1A.57.57,0,0,1,90.61,84.54Z"/><path class="cls-11" d="M70,69.59l-1.77-1c-.15-.08-.13-.22,0-.32l1.75-1a.63.63,0,0,1,.55,0l1.77,1c.15.08.13.22,0,.32l-1.75,1A.57.57,0,0,1,70,69.59Z"/><path class="cls-11" d="M67.26,68l-1.77-1c-.14-.08-.12-.22,0-.32l1.76-1a.57.57,0,0,1,.55,0l1.77,1c.14.08.12.22,0,.32l-1.75,1A.59.59,0,0,1,67.26,68Z"/><path class="cls-11" d="M64.48,66.39l-3.81-2.2c-.14-.08-.12-.23,0-.32l1.76-1a.6.6,0,0,1,.55,0L66.83,65c.14.09.13.23,0,.32l-1.75,1A.65.65,0,0,1,64.48,66.39Z"/><path class="cls-11" d="M66.43,64.44l-3.1-1.79c-.14-.08-.12-.22,0-.32l1.76-1a.63.63,0,0,1,.55,0l3.09,1.78c.15.09.13.23,0,.32l-1.75,1A.63.63,0,0,1,66.43,64.44Z"/><path class="cls-11" d="M72.77,71.17l-1.77-1c-.14-.08-.12-.22,0-.32l1.75-1a.59.59,0,0,1,.56,0l1.77,1c.14.08.12.22,0,.32l-1.76,1A.63.63,0,0,1,72.77,71.17Z"/><path class="cls-11" d="M75.5,72.75l-1.77-1c-.14-.08-.12-.23,0-.32l1.76-1a.6.6,0,0,1,.55,0l1.77,1c.14.08.12.22,0,.32l-1.75,1A.65.65,0,0,1,75.5,72.75Z"/><path class="cls-11" d="M78.24,74.33l-1.77-1c-.15-.09-.13-.23,0-.32l1.75-1a.63.63,0,0,1,.55,0l1.77,1c.15.09.13.23,0,.32l-1.75,1A.63.63,0,0,1,78.24,74.33Z"/><path class="cls-11" d="M81,75.91l-1.77-1c-.14-.08-.13-.22,0-.32l1.75-1a.65.65,0,0,1,.56,0l1.77,1c.14.08.12.23,0,.32l-1.76,1A.6.6,0,0,1,81,75.91Z"/><path class="cls-11" d="M83.7,77.48l-1.77-1c-.14-.08-.12-.22,0-.32l1.76-1a.63.63,0,0,1,.55,0l1.77,1c.14.08.12.22,0,.32l-1.75,1A.59.59,0,0,1,83.7,77.48Z"/><path class="cls-11" d="M86.43,79.06l-1.76-1c-.15-.08-.13-.22,0-.32l1.76-1a.57.57,0,0,1,.55,0l1.77,1c.14.08.13.22,0,.32L87,79A.65.65,0,0,1,86.43,79.06Z"/><path class="cls-11" d="M89.17,80.64l-1.77-1c-.14-.08-.13-.23,0-.32l1.75-1a.62.62,0,0,1,.56,0l1.77,1c.14.08.12.22,0,.32l-1.76,1A.63.63,0,0,1,89.17,80.64Z"/><path class="cls-11" d="M91.9,82.22l-1.77-1c-.14-.09-.12-.23,0-.32l1.75-1a.65.65,0,0,1,.56,0l1.77,1c.14.08.12.23,0,.32l-1.75,1A.65.65,0,0,1,91.9,82.22Z"/><path class="cls-11" d="M94.63,83.8l-1.77-1c-.14-.08-.12-.22,0-.32l1.76-1a.63.63,0,0,1,.55,0l1.77,1c.14.08.13.23,0,.32l-1.75,1A.62.62,0,0,1,94.63,83.8Z"/><path class="cls-11" d="M99.49,86.6l-3.86-2.23c-.14-.08-.12-.22,0-.32l1.75-1A.59.59,0,0,1,98,83l3.86,2.23c.14.08.12.22,0,.32l-1.75,1A.65.65,0,0,1,99.49,86.6Z"/><path class="cls-11" d="M104.81,83.53l-3.26-1.88c-.14-.08-.12-.23,0-.32l1.76-1a.6.6,0,0,1,.55,0l3.26,1.88c.14.09.13.23,0,.32l-1.75,1A.65.65,0,0,1,104.81,83.53Z"/><path class="cls-11" d="M77.56,70.86l-1.77-1c-.15-.08-.13-.22,0-.32l1.75-1a.6.6,0,0,1,.55,0l1.77,1c.15.08.13.22,0,.32l-1.75,1A.57.57,0,0,1,77.56,70.86Z"/><path class="cls-11" d="M74.75,69.25l-1.77-1c-.14-.09-.12-.23,0-.32l1.76-1a.63.63,0,0,1,.55,0l1.77,1c.14.08.13.23,0,.32l-1.75,1A.62.62,0,0,1,74.75,69.25Z"/><path class="cls-11" d="M72,67.63l-1.77-1c-.14-.08-.12-.23,0-.32l1.76-1a.6.6,0,0,1,.55,0l1.77,1c.14.09.13.23,0,.32l-1.75,1A.65.65,0,0,1,72,67.63Z"/><path class="cls-11" d="M69.15,66l-1.77-1c-.14-.08-.12-.22,0-.32l1.76-1a.57.57,0,0,1,.55,0l1.77,1c.14.08.12.22,0,.32l-1.75,1A.65.65,0,0,1,69.15,66Z"/><path class="cls-11" d="M80.29,72.44l-1.77-1c-.14-.08-.13-.23,0-.32l1.75-1a.62.62,0,0,1,.56,0l1.77,1c.14.08.12.22,0,.32l-1.76,1A.63.63,0,0,1,80.29,72.44Z"/><path class="cls-11" d="M83,74l-1.77-1c-.14-.08-.12-.23,0-.32l1.76-1a.6.6,0,0,1,.55,0l1.77,1c.14.09.12.23,0,.32l-1.75,1A.65.65,0,0,1,83,74Z"/><path class="cls-11" d="M85.75,75.6l-1.76-1c-.15-.09-.13-.23,0-.32l1.76-1a.63.63,0,0,1,.55,0l1.77,1c.14.08.13.23,0,.32l-1.75,1A.62.62,0,0,1,85.75,75.6Z"/><path class="cls-11" d="M88.49,77.18l-1.77-1c-.14-.08-.13-.22,0-.32l1.75-1a.65.65,0,0,1,.56,0l1.77,1c.14.08.12.23,0,.32l-1.76,1A.6.6,0,0,1,88.49,77.18Z"/><path class="cls-11" d="M91.22,78.75l-1.77-1c-.14-.08-.12-.22,0-.32l1.75-1a.59.59,0,0,1,.56,0l1.77,1c.14.08.12.22,0,.32l-1.75,1A.59.59,0,0,1,91.22,78.75Z"/><path class="cls-11" d="M94,80.33l-1.77-1c-.14-.08-.12-.23,0-.32L94,78a.6.6,0,0,1,.55,0l1.77,1c.14.08.13.22,0,.32l-1.75,1A.65.65,0,0,1,94,80.33Z"/><path class="cls-11" d="M96.69,81.91l-1.77-1c-.14-.08-.13-.23,0-.32l1.75-1a.62.62,0,0,1,.56,0l1.76,1c.15.09.13.23,0,.32l-1.76,1A.63.63,0,0,1,96.69,81.91Z"/><path class="cls-11" d="M99.42,83.49l-1.77-1c-.14-.09-.12-.23,0-.32l1.75-1a.65.65,0,0,1,.56,0l1.77,1c.14.08.12.23,0,.32l-1.76,1A.6.6,0,0,1,99.42,83.49Z"/><path class="cls-11" d="M102.15,85.07l-1.77-1c-.14-.08-.12-.22,0-.32l1.76-1a.63.63,0,0,1,.55,0l1.77,1c.14.08.13.23,0,.32l-1.75,1A.62.62,0,0,1,102.15,85.07Z"/><path class="cls-11" d="M76.12,67l-1.77-1c-.15-.08-.13-.23,0-.32l1.75-1a.6.6,0,0,1,.55,0l1.77,1c.15.08.13.22,0,.32l-1.75,1A.63.63,0,0,1,76.12,67Z"/><path class="cls-11" d="M73.4,65.39l-1.77-1c-.14-.08-.13-.23,0-.32l1.75-1A.62.62,0,0,1,74,63l1.76,1c.15.08.13.22,0,.32l-1.76,1A.63.63,0,0,1,73.4,65.39Z"/><path class="cls-11" d="M70.68,63.82l-1.77-1c-.14-.08-.13-.23,0-.32l1.75-1a.62.62,0,0,1,.56,0l1.77,1c.14.08.12.22,0,.32l-1.76,1A.63.63,0,0,1,70.68,63.82Z"/><path class="cls-11" d="M68,62.25l-1.77-1c-.14-.08-.13-.23,0-.32l1.75-1a.62.62,0,0,1,.56,0l1.77,1c.14.08.12.22,0,.32l-1.76,1A.63.63,0,0,1,68,62.25Z"/><path class="cls-11" d="M70.75,60.64l-1.77-1c-.14-.08-.12-.22,0-.32L69.6,59a.62.62,0,0,1,.56,0l1.77,1c.14.08.12.22,0,.32l-.58.33A.62.62,0,0,1,70.75,60.64Z"/><path class="cls-11" d="M74.3,62.69l-1.77-1c-.14-.08-.12-.22,0-.32l.58-.33a.59.59,0,0,1,.56,0l1.77,1c.14.08.12.22,0,.32l-.58.33A.62.62,0,0,1,74.3,62.69Z"/><path class="cls-11" d="M77,64.25l-1.77-1c-.14-.08-.12-.23,0-.32l.58-.34a.65.65,0,0,1,.56,0l1.77,1c.14.08.12.23,0,.32l-.58.34A.65.65,0,0,1,77,64.25Z"/><path class="cls-11" d="M79.72,65.81l-1.77-1c-.14-.08-.12-.22,0-.32l.58-.33a.6.6,0,0,1,.55,0l1.77,1c.15.09.13.23,0,.32l-.58.34A.63.63,0,0,1,79.72,65.81Z"/><path class="cls-11" d="M82.43,67.38l-1.77-1c-.14-.08-.13-.22,0-.32l.58-.33a.57.57,0,0,1,.55,0l1.77,1c.14.08.13.22,0,.32l-.58.33A.6.6,0,0,1,82.43,67.38Z"/><path class="cls-11" d="M97.55,76.11l-1.77-1c-.14-.08-.13-.22,0-.32l.58-.33a.57.57,0,0,1,.55,0l1.77,1c.14.08.13.22,0,.32l-.58.33A.6.6,0,0,1,97.55,76.11Z"/><path class="cls-11" d="M100.26,77.67l-1.77-1c-.15-.09-.13-.23,0-.32L99.1,76a.65.65,0,0,1,.56,0l1.77,1c.14.08.12.23,0,.32l-.58.34A.63.63,0,0,1,100.26,77.67Z"/><path class="cls-11" d="M103,79.23l-1.77-1c-.14-.08-.12-.23,0-.32l.58-.33a.62.62,0,0,1,.56,0l1.77,1c.14.09.12.23,0,.32l-.58.34A.65.65,0,0,1,103,79.23Z"/><path class="cls-11" d="M105.67,80.8l-1.77-1c-.14-.08-.12-.22,0-.32l.58-.33a.59.59,0,0,1,.56,0l1.77,1c.14.08.12.22,0,.32l-.58.33A.62.62,0,0,1,105.67,80.8Z"/><path class="cls-11" d="M78.85,68.54l-1.77-1c-.14-.08-.12-.23,0-.32l1.75-1a.65.65,0,0,1,.56,0l1.77,1c.14.09.12.23,0,.32l-1.76,1A.63.63,0,0,1,78.85,68.54Z"/><path class="cls-11" d="M81.58,70.12l-1.77-1c-.14-.09-.12-.23,0-.32l1.76-1a.63.63,0,0,1,.55,0l1.77,1c.14.08.12.23,0,.32l-1.75,1A.62.62,0,0,1,81.58,70.12Z"/><path class="cls-11" d="M84.32,71.7l-1.77-1c-.15-.08-.13-.22,0-.32l1.75-1a.63.63,0,0,1,.55,0l1.77,1c.15.08.13.22,0,.32l-1.75,1A.6.6,0,0,1,84.32,71.7Z"/><path class="cls-11" d="M87.05,73.27l-1.77-1c-.14-.08-.13-.22,0-.32l1.75-1a.59.59,0,0,1,.56,0l1.77,1c.14.08.12.22,0,.32l-1.76,1A.63.63,0,0,1,87.05,73.27Z"/><path class="cls-11" d="M89.78,74.85l-1.77-1c-.14-.08-.12-.23,0-.32l1.76-1a.6.6,0,0,1,.55,0l1.77,1c.14.08.12.22,0,.32l-1.75,1A.65.65,0,0,1,89.78,74.85Z"/><path class="cls-11" d="M92.51,76.43l-1.76-1c-.15-.08-.13-.23,0-.32l1.75-1a.63.63,0,0,1,.55,0l1.77,1c.14.09.13.23,0,.32l-1.75,1A.65.65,0,0,1,92.51,76.43Z"/><path class="cls-11" d="M95.25,78l-1.77-1c-.14-.08-.13-.22,0-.32l1.75-1a.65.65,0,0,1,.56,0l1.77,1c.14.08.12.23,0,.32L95.8,78A.6.6,0,0,1,95.25,78Z"/><path class="cls-11" d="M98,79.58l-1.77-1c-.14-.08-.12-.22,0-.32l1.75-1a.65.65,0,0,1,.56,0l1.77,1c.14.08.12.22,0,.32l-1.75,1A.59.59,0,0,1,98,79.58Z"/><path class="cls-11" d="M100.71,81.16l-1.77-1c-.14-.08-.12-.22,0-.32l1.76-1a.57.57,0,0,1,.55,0l1.77,1c.14.08.13.22,0,.32l-1.75,1A.65.65,0,0,1,100.71,81.16Z"/><path class="cls-11" d="M63.22,68.73l-5.21-3c-.14-.08-.12-.22,0-.32l1.76-1a.63.63,0,0,1,.55,0l5.21,3c.14.08.13.22,0,.32l-1.75,1A.59.59,0,0,1,63.22,68.73Z"/><path class="cls-11" d="M96.8,88.12l-5.21-3c-.14-.08-.13-.23,0-.32l1.75-1a.62.62,0,0,1,.56,0l5.21,3c.14.09.12.23,0,.32l-1.75,1A.65.65,0,0,1,96.8,88.12Z"/><path class="cls-11" d="M85.87,85.29l-1.77-1c-.14-.08-.12-.22,0-.32l2.09-1.2a.6.6,0,0,1,.55,0l1.77,1c.15.08.13.22,0,.32l-2.08,1.2A.59.59,0,0,1,85.87,85.29Z"/><path class="cls-11" d="M66,73.84,63.19,72.2c-.14-.08-.12-.22,0-.32l2.09-1.2a.62.62,0,0,1,.56,0l2.83,1.64c.14.08.12.22,0,.32l-2.09,1.2A.62.62,0,0,1,66,73.84Z"/><path class="cls-11" d="M83.24,83.77l-2.83-1.63c-.15-.08-.13-.23,0-.32l2.09-1.21a.63.63,0,0,1,.55,0l2.83,1.63c.14.09.12.23,0,.32l-2.09,1.21A.57.57,0,0,1,83.24,83.77Z"/><path class="cls-11" d="M70,76.11l-2.83-1.63c-.15-.08-.13-.23,0-.32L69.26,73a.65.65,0,0,1,.56,0l2.83,1.63c.14.08.12.23,0,.32l-2.09,1.21A.63.63,0,0,1,70,76.11Z"/><path class="cls-11" d="M69.84,72.94,82.14,80c.16.09.16.24,0,.32L80,81.59a.59.59,0,0,1-.55,0l-12.3-7.1Z"/><path class="cls-11" d="M93.51,88.16l2,1.13c.12.07.1.19,0,.27l-.86.49a.48.48,0,0,1-.45,0l-2-1.14c-.12-.07-.1-.18,0-.26l.85-.5A.53.53,0,0,1,93.51,88.16Z"/><path class="cls-11" d="M90.75,86.56l2,1.14c.12.07.11.19,0,.26l-.85.5a.53.53,0,0,1-.46,0l-2-1.14c-.11-.07-.1-.19,0-.26l.86-.5A.55.55,0,0,1,90.75,86.56Z"/><path class="cls-11" d="M88,85l2,1.13c.12.07.1.19,0,.27l-.86.49a.48.48,0,0,1-.45,0l-2-1.14c-.12-.07-.1-.18,0-.26l.86-.49A.48.48,0,0,1,88,85Z"/><path class="cls-11" d="M92.26,85.69l2,1.14c.12.07.11.19,0,.26l-.85.5a.57.57,0,0,1-.46,0l-2-1.14c-.12-.07-.1-.19,0-.26l.86-.5A.51.51,0,0,1,92.26,85.69Z"/></g><g class="cls-10"><path class="cls-11" d="M56.76,68.49l-1.77-1c-.14-.08-.12-.23,0-.32l2.09-1.21a.65.65,0,0,1,.56,0l1.77,1c.14.08.12.23,0,.32l-2.09,1.21A.65.65,0,0,1,56.76,68.49Z"/><path class="cls-11" d="M59.5,70.07l-1.77-1c-.15-.09-.13-.23,0-.32l2.09-1.21a.57.57,0,0,1,.55,0l1.77,1c.14.08.12.22,0,.32L60.05,70A.6.6,0,0,1,59.5,70.07Z"/><path class="cls-11" d="M62.23,71.65l-1.77-1c-.14-.08-.12-.22,0-.32l2.09-1.2a.6.6,0,0,1,.55,0l1.77,1c.14.08.13.22,0,.32l-2.09,1.2A.6.6,0,0,1,62.23,71.65Z"/><path class="cls-11" d="M66,70.34l-1.77-1c-.14-.08-.12-.23,0-.32L66,68a.62.62,0,0,1,.56,0l1.77,1c.14.08.12.22,0,.32l-1.76,1A.63.63,0,0,1,66,70.34Z"/><path class="cls-11" d="M68.74,71.92,67,70.9c-.14-.08-.12-.23,0-.32l1.76-1a.6.6,0,0,1,.55,0l1.77,1c.14.09.12.23,0,.32l-1.75,1A.65.65,0,0,1,68.74,71.92Z"/><path class="cls-11" d="M71.48,73.5l-1.77-1c-.15-.09-.13-.23,0-.32l1.75-1a.63.63,0,0,1,.55,0l1.77,1c.15.08.13.23,0,.32l-1.75,1A.6.6,0,0,1,71.48,73.5Z"/><path class="cls-11" d="M74.21,75.08l-1.77-1c-.14-.08-.13-.22,0-.32l1.75-1a.65.65,0,0,1,.56,0l1.77,1c.14.08.12.23,0,.32l-1.76,1A.6.6,0,0,1,74.21,75.08Z"/><path class="cls-11" d="M76.94,76.65l-1.77-1c-.14-.08-.12-.22,0-.32l1.76-1a.57.57,0,0,1,.55,0l1.77,1c.14.08.12.22,0,.32l-1.75,1A.59.59,0,0,1,76.94,76.65Z"/><path class="cls-11" d="M79.67,78.23l-1.77-1c-.14-.08-.12-.23,0-.32l1.76-1a.6.6,0,0,1,.55,0l1.77,1c.14.08.13.22,0,.32l-1.75,1A.65.65,0,0,1,79.67,78.23Z"/><path class="cls-11" d="M82.41,79.81l-1.77-1c-.14-.08-.13-.23,0-.32l1.75-1a.62.62,0,0,1,.56,0l1.77,1c.14.09.12.23,0,.32l-1.76,1A.63.63,0,0,1,82.41,79.81Z"/><path class="cls-11" d="M85.14,81.39l-1.77-1c-.14-.09-.12-.23,0-.32l1.75-1a.65.65,0,0,1,.56,0l1.77,1c.14.08.12.23,0,.32l-1.75,1A.62.62,0,0,1,85.14,81.39Z"/><path class="cls-11" d="M87.87,83l-1.77-1c-.14-.08-.12-.22,0-.32l1.76-1a.63.63,0,0,1,.55,0l1.77,1c.14.08.13.23,0,.32l-1.75,1A.62.62,0,0,1,87.87,83Z"/><path class="cls-11" d="M90.61,84.54l-1.77-1c-.14-.08-.13-.22,0-.32l1.75-1a.59.59,0,0,1,.56,0l1.76,1c.15.08.13.22,0,.32l-1.75,1A.57.57,0,0,1,90.61,84.54Z"/><path class="cls-11" d="M70,69.59l-1.77-1c-.15-.08-.13-.22,0-.32l1.75-1a.63.63,0,0,1,.55,0l1.77,1c.15.08.13.22,0,.32l-1.75,1A.57.57,0,0,1,70,69.59Z"/><path class="cls-11" d="M67.26,68l-1.77-1c-.14-.08-.12-.22,0-.32l1.76-1a.57.57,0,0,1,.55,0l1.77,1c.14.08.12.22,0,.32l-1.75,1A.59.59,0,0,1,67.26,68Z"/><path class="cls-11" d="M64.48,66.39l-3.81-2.2c-.14-.08-.12-.23,0-.32l1.76-1a.6.6,0,0,1,.55,0L66.83,65c.14.09.13.23,0,.32l-1.75,1A.65.65,0,0,1,64.48,66.39Z"/><path class="cls-11" d="M66.43,64.44l-3.1-1.79c-.14-.08-.12-.22,0-.32l1.76-1a.63.63,0,0,1,.55,0l3.09,1.78c.15.09.13.23,0,.32l-1.75,1A.63.63,0,0,1,66.43,64.44Z"/><path class="cls-11" d="M72.77,71.17l-1.77-1c-.14-.08-.12-.22,0-.32l1.75-1a.59.59,0,0,1,.56,0l1.77,1c.14.08.12.22,0,.32l-1.76,1A.63.63,0,0,1,72.77,71.17Z"/><path class="cls-11" d="M75.5,72.75l-1.77-1c-.14-.08-.12-.23,0-.32l1.76-1a.6.6,0,0,1,.55,0l1.77,1c.14.08.12.22,0,.32l-1.75,1A.65.65,0,0,1,75.5,72.75Z"/><path class="cls-11" d="M78.24,74.33l-1.77-1c-.15-.09-.13-.23,0-.32l1.75-1a.63.63,0,0,1,.55,0l1.77,1c.15.09.13.23,0,.32l-1.75,1A.63.63,0,0,1,78.24,74.33Z"/><path class="cls-11" d="M81,75.91l-1.77-1c-.14-.08-.13-.22,0-.32l1.75-1a.65.65,0,0,1,.56,0l1.77,1c.14.08.12.23,0,.32l-1.76,1A.6.6,0,0,1,81,75.91Z"/><path class="cls-11" d="M83.7,77.48l-1.77-1c-.14-.08-.12-.22,0-.32l1.76-1a.63.63,0,0,1,.55,0l1.77,1c.14.08.12.22,0,.32l-1.75,1A.59.59,0,0,1,83.7,77.48Z"/><path class="cls-11" d="M86.43,79.06l-1.76-1c-.15-.08-.13-.22,0-.32l1.76-1a.57.57,0,0,1,.55,0l1.77,1c.14.08.13.22,0,.32L87,79A.65.65,0,0,1,86.43,79.06Z"/><path class="cls-11" d="M89.17,80.64l-1.77-1c-.14-.08-.13-.23,0-.32l1.75-1a.62.62,0,0,1,.56,0l1.77,1c.14.08.12.22,0,.32l-1.76,1A.63.63,0,0,1,89.17,80.64Z"/><path class="cls-11" d="M91.9,82.22l-1.77-1c-.14-.09-.12-.23,0-.32l1.75-1a.65.65,0,0,1,.56,0l1.77,1c.14.08.12.23,0,.32l-1.75,1A.65.65,0,0,1,91.9,82.22Z"/><path class="cls-11" d="M94.63,83.8l-1.77-1c-.14-.08-.12-.22,0-.32l1.76-1a.63.63,0,0,1,.55,0l1.77,1c.14.08.13.23,0,.32l-1.75,1A.62.62,0,0,1,94.63,83.8Z"/><path class="cls-11" d="M99.49,86.6l-3.86-2.23c-.14-.08-.12-.22,0-.32l1.75-1A.59.59,0,0,1,98,83l3.86,2.23c.14.08.12.22,0,.32l-1.75,1A.65.65,0,0,1,99.49,86.6Z"/><path class="cls-11" d="M104.81,83.53l-3.26-1.88c-.14-.08-.12-.23,0-.32l1.76-1a.6.6,0,0,1,.55,0l3.26,1.88c.14.09.13.23,0,.32l-1.75,1A.65.65,0,0,1,104.81,83.53Z"/><path class="cls-11" d="M77.56,70.86l-1.77-1c-.15-.08-.13-.22,0-.32l1.75-1a.6.6,0,0,1,.55,0l1.77,1c.15.08.13.22,0,.32l-1.75,1A.57.57,0,0,1,77.56,70.86Z"/><path class="cls-11" d="M74.75,69.25l-1.77-1c-.14-.09-.12-.23,0-.32l1.76-1a.63.63,0,0,1,.55,0l1.77,1c.14.08.13.23,0,.32l-1.75,1A.62.62,0,0,1,74.75,69.25Z"/><path class="cls-11" d="M72,67.63l-1.77-1c-.14-.08-.12-.23,0-.32l1.76-1a.6.6,0,0,1,.55,0l1.77,1c.14.09.13.23,0,.32l-1.75,1A.65.65,0,0,1,72,67.63Z"/><path class="cls-11" d="M69.15,66l-1.77-1c-.14-.08-.12-.22,0-.32l1.76-1a.57.57,0,0,1,.55,0l1.77,1c.14.08.12.22,0,.32l-1.75,1A.65.65,0,0,1,69.15,66Z"/><path class="cls-11" d="M80.29,72.44l-1.77-1c-.14-.08-.13-.23,0-.32l1.75-1a.62.62,0,0,1,.56,0l1.77,1c.14.08.12.22,0,.32l-1.76,1A.63.63,0,0,1,80.29,72.44Z"/><path class="cls-11" d="M83,74l-1.77-1c-.14-.08-.12-.23,0-.32l1.76-1a.6.6,0,0,1,.55,0l1.77,1c.14.09.12.23,0,.32l-1.75,1A.65.65,0,0,1,83,74Z"/><path class="cls-11" d="M85.75,75.6l-1.76-1c-.15-.09-.13-.23,0-.32l1.76-1a.63.63,0,0,1,.55,0l1.77,1c.14.08.13.23,0,.32l-1.75,1A.62.62,0,0,1,85.75,75.6Z"/><path class="cls-11" d="M88.49,77.18l-1.77-1c-.14-.08-.13-.22,0-.32l1.75-1a.65.65,0,0,1,.56,0l1.77,1c.14.08.12.23,0,.32l-1.76,1A.6.6,0,0,1,88.49,77.18Z"/><path class="cls-11" d="M91.22,78.75l-1.77-1c-.14-.08-.12-.22,0-.32l1.75-1a.59.59,0,0,1,.56,0l1.77,1c.14.08.12.22,0,.32l-1.75,1A.59.59,0,0,1,91.22,78.75Z"/><path class="cls-11" d="M94,80.33l-1.77-1c-.14-.08-.12-.23,0-.32L94,78a.6.6,0,0,1,.55,0l1.77,1c.14.08.13.22,0,.32l-1.75,1A.65.65,0,0,1,94,80.33Z"/><path class="cls-11" d="M96.69,81.91l-1.77-1c-.14-.08-.13-.23,0-.32l1.75-1a.62.62,0,0,1,.56,0l1.76,1c.15.09.13.23,0,.32l-1.76,1A.63.63,0,0,1,96.69,81.91Z"/><path class="cls-11" d="M99.42,83.49l-1.77-1c-.14-.09-.12-.23,0-.32l1.75-1a.65.65,0,0,1,.56,0l1.77,1c.14.08.12.23,0,.32l-1.76,1A.6.6,0,0,1,99.42,83.49Z"/><path class="cls-11" d="M102.15,85.07l-1.77-1c-.14-.08-.12-.22,0-.32l1.76-1a.63.63,0,0,1,.55,0l1.77,1c.14.08.13.23,0,.32l-1.75,1A.62.62,0,0,1,102.15,85.07Z"/><path class="cls-11" d="M76.12,67l-1.77-1c-.15-.08-.13-.23,0-.32l1.75-1a.6.6,0,0,1,.55,0l1.77,1c.15.08.13.22,0,.32l-1.75,1A.63.63,0,0,1,76.12,67Z"/><path class="cls-11" d="M73.4,65.39l-1.77-1c-.14-.08-.13-.23,0-.32l1.75-1A.62.62,0,0,1,74,63l1.76,1c.15.08.13.22,0,.32l-1.76,1A.63.63,0,0,1,73.4,65.39Z"/><path class="cls-11" d="M70.68,63.82l-1.77-1c-.14-.08-.13-.23,0-.32l1.75-1a.62.62,0,0,1,.56,0l1.77,1c.14.08.12.22,0,.32l-1.76,1A.63.63,0,0,1,70.68,63.82Z"/><path class="cls-11" d="M68,62.25l-1.77-1c-.14-.08-.13-.23,0-.32l1.75-1a.62.62,0,0,1,.56,0l1.77,1c.14.08.12.22,0,.32l-1.76,1A.63.63,0,0,1,68,62.25Z"/><path class="cls-11" d="M70.75,60.64l-1.77-1c-.14-.08-.12-.22,0-.32L69.6,59a.62.62,0,0,1,.56,0l1.77,1c.14.08.12.22,0,.32l-.58.33A.62.62,0,0,1,70.75,60.64Z"/><path class="cls-11" d="M74.3,62.69l-1.77-1c-.14-.08-.12-.22,0-.32l.58-.33a.59.59,0,0,1,.56,0l1.77,1c.14.08.12.22,0,.32l-.58.33A.62.62,0,0,1,74.3,62.69Z"/><path class="cls-11" d="M77,64.25l-1.77-1c-.14-.08-.12-.23,0-.32l.58-.34a.65.65,0,0,1,.56,0l1.77,1c.14.08.12.23,0,.32l-.58.34A.65.65,0,0,1,77,64.25Z"/><path class="cls-11" d="M79.72,65.81l-1.77-1c-.14-.08-.12-.22,0-.32l.58-.33a.6.6,0,0,1,.55,0l1.77,1c.15.09.13.23,0,.32l-.58.34A.63.63,0,0,1,79.72,65.81Z"/><path class="cls-11" d="M82.43,67.38l-1.77-1c-.14-.08-.13-.22,0-.32l.58-.33a.57.57,0,0,1,.55,0l1.77,1c.14.08.13.22,0,.32l-.58.33A.6.6,0,0,1,82.43,67.38Z"/><path class="cls-11" d="M97.55,76.11l-1.77-1c-.14-.08-.13-.22,0-.32l.58-.33a.57.57,0,0,1,.55,0l1.77,1c.14.08.13.22,0,.32l-.58.33A.6.6,0,0,1,97.55,76.11Z"/><path class="cls-11" d="M100.26,77.67l-1.77-1c-.15-.09-.13-.23,0-.32L99.1,76a.65.65,0,0,1,.56,0l1.77,1c.14.08.12.23,0,.32l-.58.34A.63.63,0,0,1,100.26,77.67Z"/><path class="cls-11" d="M103,79.23l-1.77-1c-.14-.08-.12-.23,0-.32l.58-.33a.62.62,0,0,1,.56,0l1.77,1c.14.09.12.23,0,.32l-.58.34A.65.65,0,0,1,103,79.23Z"/><path class="cls-11" d="M105.67,80.8l-1.77-1c-.14-.08-.12-.22,0-.32l.58-.33a.59.59,0,0,1,.56,0l1.77,1c.14.08.12.22,0,.32l-.58.33A.62.62,0,0,1,105.67,80.8Z"/><path class="cls-11" d="M78.85,68.54l-1.77-1c-.14-.08-.12-.23,0-.32l1.75-1a.65.65,0,0,1,.56,0l1.77,1c.14.09.12.23,0,.32l-1.76,1A.63.63,0,0,1,78.85,68.54Z"/><path class="cls-11" d="M81.58,70.12l-1.77-1c-.14-.09-.12-.23,0-.32l1.76-1a.63.63,0,0,1,.55,0l1.77,1c.14.08.12.23,0,.32l-1.75,1A.62.62,0,0,1,81.58,70.12Z"/><path class="cls-11" d="M84.32,71.7l-1.77-1c-.15-.08-.13-.22,0-.32l1.75-1a.63.63,0,0,1,.55,0l1.77,1c.15.08.13.22,0,.32l-1.75,1A.6.6,0,0,1,84.32,71.7Z"/><path class="cls-11" d="M87.05,73.27l-1.77-1c-.14-.08-.13-.22,0-.32l1.75-1a.59.59,0,0,1,.56,0l1.77,1c.14.08.12.22,0,.32l-1.76,1A.63.63,0,0,1,87.05,73.27Z"/><path class="cls-11" d="M89.78,74.85l-1.77-1c-.14-.08-.12-.23,0-.32l1.76-1a.6.6,0,0,1,.55,0l1.77,1c.14.08.12.22,0,.32l-1.75,1A.65.65,0,0,1,89.78,74.85Z"/><path class="cls-11" d="M92.51,76.43l-1.76-1c-.15-.08-.13-.23,0-.32l1.75-1a.63.63,0,0,1,.55,0l1.77,1c.14.09.13.23,0,.32l-1.75,1A.65.65,0,0,1,92.51,76.43Z"/><path class="cls-11" d="M95.25,78l-1.77-1c-.14-.08-.13-.22,0-.32l1.75-1a.65.65,0,0,1,.56,0l1.77,1c.14.08.12.23,0,.32L95.8,78A.6.6,0,0,1,95.25,78Z"/><path class="cls-11" d="M98,79.58l-1.77-1c-.14-.08-.12-.22,0-.32l1.75-1a.65.65,0,0,1,.56,0l1.77,1c.14.08.12.22,0,.32l-1.75,1A.59.59,0,0,1,98,79.58Z"/><path class="cls-11" d="M100.71,81.16l-1.77-1c-.14-.08-.12-.22,0-.32l1.76-1a.57.57,0,0,1,.55,0l1.77,1c.14.08.13.22,0,.32l-1.75,1A.65.65,0,0,1,100.71,81.16Z"/><path class="cls-11" d="M63.22,68.73l-5.21-3c-.14-.08-.12-.22,0-.32l1.76-1a.63.63,0,0,1,.55,0l5.21,3c.14.08.13.22,0,.32l-1.75,1A.59.59,0,0,1,63.22,68.73Z"/><path class="cls-11" d="M96.8,88.12l-5.21-3c-.14-.08-.13-.23,0-.32l1.75-1a.62.62,0,0,1,.56,0l5.21,3c.14.09.12.23,0,.32l-1.75,1A.65.65,0,0,1,96.8,88.12Z"/><path class="cls-11" d="M85.87,85.29l-1.77-1c-.14-.08-.12-.22,0-.32l2.09-1.2a.6.6,0,0,1,.55,0l1.77,1c.15.08.13.22,0,.32l-2.08,1.2A.59.59,0,0,1,85.87,85.29Z"/><path class="cls-11" d="M66,73.84,63.19,72.2c-.14-.08-.12-.22,0-.32l2.09-1.2a.62.62,0,0,1,.56,0l2.83,1.64c.14.08.12.22,0,.32l-2.09,1.2A.62.62,0,0,1,66,73.84Z"/><path class="cls-11" d="M83.24,83.77l-2.83-1.63c-.15-.08-.13-.23,0-.32l2.09-1.21a.63.63,0,0,1,.55,0l2.83,1.63c.14.09.12.23,0,.32l-2.09,1.21A.57.57,0,0,1,83.24,83.77Z"/><path class="cls-11" d="M70,76.11l-2.83-1.63c-.15-.08-.13-.23,0-.32L69.26,73a.65.65,0,0,1,.56,0l2.83,1.63c.14.08.12.23,0,.32l-2.09,1.21A.63.63,0,0,1,70,76.11Z"/><path class="cls-11" d="M69.84,72.94,82.14,80c.16.09.16.24,0,.32L80,81.59a.59.59,0,0,1-.55,0l-12.3-7.1Z"/><path class="cls-11" d="M93.51,88.16l2,1.13c.12.07.1.19,0,.27l-.86.49a.48.48,0,0,1-.45,0l-2-1.14c-.12-.07-.1-.18,0-.26l.85-.5A.53.53,0,0,1,93.51,88.16Z"/><path class="cls-11" d="M90.75,86.56l2,1.14c.12.07.11.19,0,.26l-.85.5a.53.53,0,0,1-.46,0l-2-1.14c-.11-.07-.1-.19,0-.26l.86-.5A.55.55,0,0,1,90.75,86.56Z"/><path class="cls-11" d="M88,85l2,1.13c.12.07.1.19,0,.27l-.86.49a.48.48,0,0,1-.45,0l-2-1.14c-.12-.07-.1-.18,0-.26l.86-.49A.48.48,0,0,1,88,85Z"/><path class="cls-11" d="M92.26,85.69l2,1.14c.12.07.11.19,0,.26l-.85.5a.57.57,0,0,1-.46,0l-2-1.14c-.12-.07-.1-.19,0-.26l.86-.5A.51.51,0,0,1,92.26,85.69Z"/></g><path class="cls-12" d="M121.19,82.5,69,52.36a2.3,2.3,0,0,1-1-2.58l11.8-38.34a1.35,1.35,0,0,1,2-.87l52.21,30.15a2.3,2.3,0,0,1,1,2.58L123.2,81.64A1.34,1.34,0,0,1,121.19,82.5Z"/><path class="cls-13" d="M120.7,81.16,70.05,51.89a2.21,2.21,0,0,1-.92-2.46L80.42,12.77A1.28,1.28,0,0,1,82.35,12L133,41.21a2.22,2.22,0,0,1,.91,2.47L122.62,80.33A1.28,1.28,0,0,1,120.7,81.16Z"/><path class="cls-14" d="M120.7,81.16,70.05,51.89a2.21,2.21,0,0,1-.92-2.46L80.42,12.77A1.28,1.28,0,0,1,82.35,12L133,41.21a2.22,2.22,0,0,1,.91,2.47L122.62,80.33A1.28,1.28,0,0,1,120.7,81.16Z"/><path class="cls-14" d="M120.7,81.16,70.05,51.89a2.21,2.21,0,0,1-.92-2.46L80.42,12.77A1.28,1.28,0,0,1,82.35,12L133,41.21a2.22,2.22,0,0,1,.91,2.47L122.62,80.33A1.28,1.28,0,0,1,120.7,81.16Z"/><path class="cls-15" d="M118,70,83.69,50.16a1.52,1.52,0,0,1-.63-1.69L90.82,23.3a.88.88,0,0,1,1.32-.57l34.28,19.79a1.53,1.53,0,0,1,.63,1.7L119.3,69.39A.88.88,0,0,1,118,70Z"/><path class="cls-16" d="M113.34,70.57,79.06,50.77a1.52,1.52,0,0,1-.63-1.69L86.18,23.9a.89.89,0,0,1,1.33-.56l34.28,19.79a1.53,1.53,0,0,1,.63,1.7L114.67,70A.89.89,0,0,1,113.34,70.57Z"/><g class="cls-17"><path class="cls-11" d="M113.34,70.57,79.06,50.77a1.52,1.52,0,0,1-.63-1.69L86.18,23.9a.89.89,0,0,1,1.33-.56l34.28,19.79a1.53,1.53,0,0,1,.63,1.7L114.67,70A.89.89,0,0,1,113.34,70.57Z"/></g><path class="cls-9" d="M121.79,43.13,87.51,23.34a.86.86,0,0,0-1,0,1,1,0,0,1,.5.13l34.28,19.79A1.53,1.53,0,0,1,122,45L114.2,70.16a1.09,1.09,0,0,1-.36.53.91.91,0,0,0,.83-.69l7.75-25.17A1.53,1.53,0,0,0,121.79,43.13Z"/><path class="cls-14" d="M70.1,91.12a2.59,2.59,0,0,1-1.27-.3h0L55.1,82.89a1,1,0,0,1-.57-.84,1.31,1.31,0,0,1,.76-1l7.07-4.08a3.18,3.18,0,0,1,2.89-.12L79,84.73a1,1,0,0,1,.57.85,1.31,1.31,0,0,1-.76,1l-7.07,4.08A3.33,3.33,0,0,1,70.1,91.12ZM64,76.91a3,3,0,0,0-1.42.35l-7.07,4.08c-.36.21-.56.46-.56.71a.64.64,0,0,0,.36.5L69,90.48a2.81,2.81,0,0,0,2.49-.11l7.07-4.08c.36-.21.56-.47.56-.71a.61.61,0,0,0-.37-.5L65.05,77.15A2.2,2.2,0,0,0,64,76.91Z"/><path class="cls-9" d="M95.86,36.54l-2.12-1.22a.56.56,0,0,1-.24-.61h0a.32.32,0,0,1,.48-.2l2.12,1.23a.54.54,0,0,1,.23.61h0A.3.3,0,0,1,95.86,36.54Z"/><path class="cls-9" d="M100.91,39.46l-3.13-1.81a.53.53,0,0,1-.23-.6h0a.3.3,0,0,1,.47-.2l3.13,1.8a.56.56,0,0,1,.23.61h0A.31.31,0,0,1,100.91,39.46Z"/><path class="cls-9" d="M91.58,46l-2.12-1.22a.56.56,0,0,1-.23-.61h0a.31.31,0,0,1,.47-.2l2.12,1.22a.55.55,0,0,1,.24.61h0A.32.32,0,0,1,91.58,46Z"/><path class="cls-9" d="M96.08,48.58,93,46.77a.55.55,0,0,1-.24-.6h0a.31.31,0,0,1,.48-.2l3.12,1.8a.55.55,0,0,1,.24.61h0A.32.32,0,0,1,96.08,48.58Z"/><path class="cls-9" d="M89.51,34.86l-1.33-.76a.56.56,0,0,1-.23-.61h0a.32.32,0,0,1,.48-.2l1.32.76a.55.55,0,0,1,.23.61h0A.3.3,0,0,1,89.51,34.86Z"/><path class="cls-9" d="M93.49,39.15l-4-2.34a.55.55,0,0,1-.24-.61h0a.32.32,0,0,1,.48-.2l4,2.34A.55.55,0,0,1,94,39h0A.32.32,0,0,1,93.49,39.15Z"/><path class="cls-9" d="M89.76,41l-1.32-.76a.57.57,0,0,1-.24-.61h0a.32.32,0,0,1,.48-.2l1.32.76a.57.57,0,0,1,.24.61h0A.32.32,0,0,1,89.76,41Z"/><path class="cls-9" d="M96.57,52.83l-3.53-2a.55.55,0,0,1-.24-.61h0a.32.32,0,0,1,.48-.2l3.53,2a.56.56,0,0,1,.24.61h0A.32.32,0,0,1,96.57,52.83Z"/><path class="cls-9" d="M88.28,44.07l-.85-.49a.55.55,0,0,1-.24-.61h0a.32.32,0,0,1,.48-.2l.85.49a.56.56,0,0,1,.23.61h0A.3.3,0,0,1,88.28,44.07Z"/><path class="cls-9" d="M87.47,47.58l-1-.61a.57.57,0,0,1-.24-.61h0a.32.32,0,0,1,.48-.2l1,.61a.54.54,0,0,1,.24.61h0A.32.32,0,0,1,87.47,47.58Z"/><path class="cls-9" d="M91.58,50,88.8,48.34a.55.55,0,0,1-.24-.61h0a.32.32,0,0,1,.48-.2l2.78,1.61a.56.56,0,0,1,.24.61h0A.32.32,0,0,1,91.58,50Z"/><path class="cls-9" d="M87.91,49.81l-2-1.15a.56.56,0,0,1-.23-.61h0a.31.31,0,0,1,.47-.2l2,1.16a.54.54,0,0,1,.24.61h0A.31.31,0,0,1,87.91,49.81Z"/><path class="cls-9" d="M99.61,54.59l-1.29-.74a.55.55,0,0,1-.23-.61h0a.31.31,0,0,1,.47-.2l1.29.74a.56.56,0,0,1,.23.61h0A.31.31,0,0,1,99.61,54.59Z"/><path class="cls-9" d="M94.69,43.8l-3.54-2a.55.55,0,0,1-.24-.61h0a.32.32,0,0,1,.48-.2l3.54,2a.55.55,0,0,1,.23.61h0A.3.3,0,0,1,94.69,43.8Z"/><path class="cls-18" d="M95.11,42.06,88.94,38.5a.55.55,0,0,1-.23-.61h0a.3.3,0,0,1,.47-.19l6.17,3.55a.56.56,0,0,1,.23.61h0A.3.3,0,0,1,95.11,42.06Z"/><path class="cls-18" d="M91.47,43.93l-3.54-2a.56.56,0,0,1-.23-.61h0a.31.31,0,0,1,.47-.2l3.54,2a.57.57,0,0,1,.24.61h0A.32.32,0,0,1,91.47,43.93Z"/><path class="cls-18" d="M97.37,45.35l-1.29-.74a.56.56,0,0,1-.23-.61h0a.31.31,0,0,1,.47-.2l1.29.75a.55.55,0,0,1,.24.6h0A.31.31,0,0,1,97.37,45.35Z"/><path class="cls-18" d="M110.44,45l-7.61-4.39a.56.56,0,0,1-.24-.61h0a.32.32,0,0,1,.48-.2l7.61,4.4a.55.55,0,0,1,.24.6h0A.31.31,0,0,1,110.44,45Z"/><path class="cls-19" d="M91.17,47.73l-4.25-2.46a.55.55,0,0,1-.23-.61h0a.3.3,0,0,1,.47-.19l4.25,2.45a.55.55,0,0,1,.24.61h0A.32.32,0,0,1,91.17,47.73Z"/><path class="cls-19" d="M91.81,34.21l-3.12-1.8a.57.57,0,0,1-.24-.61h0a.31.31,0,0,1,.48-.2l3.13,1.8a.56.56,0,0,1,.23.61h0A.32.32,0,0,1,91.81,34.21Z"/><path class="cls-18" d="M87.26,51.42l-3.62-2.09a.56.56,0,0,1-.24-.61h0a.32.32,0,0,1,.48-.2l3.62,2.09a.57.57,0,0,1,.24.61h0A.32.32,0,0,1,87.26,51.42Z"/><path class="cls-9" d="M111.29,41.05l-1.55-.89a.42.42,0,0,1-.17-.45h0a.24.24,0,0,1,.35-.15l1.55.9a.4.4,0,0,1,.17.44h0A.23.23,0,0,1,111.29,41.05Z"/><path class="cls-9" d="M114.25,42.76l-1.55-.9a.4.4,0,0,1-.17-.44h0a.23.23,0,0,1,.35-.15l1.54.9a.39.39,0,0,1,.18.44h0A.24.24,0,0,1,114.25,42.76Z"/><path class="cls-9" d="M117.2,44.46l-1.55-.89a.41.41,0,0,1-.17-.45h0a.23.23,0,0,1,.35-.14l1.55.89a.41.41,0,0,1,.17.45h0A.23.23,0,0,1,117.2,44.46Z"/><path class="cls-19" d="M118.66,45.3l0,0a.4.4,0,0,1-.17-.44h0a.23.23,0,0,1,.35-.15l0,0a.39.39,0,0,1,.17.45h0A.22.22,0,0,1,118.66,45.3Z"/><path class="cls-20" d="M38.69,63.43a5.59,5.59,0,0,1-2.83-.76h0l-10.38-6a1.42,1.42,0,0,1-.72-1.24,1.43,1.43,0,0,1,.72-1.25l10.38-6a5.68,5.68,0,0,1,5.67,0l10.38,6a1.43,1.43,0,0,1,.72,1.25,1.42,1.42,0,0,1-.72,1.24l-10.38,6A5.6,5.6,0,0,1,38.69,63.43ZM36.2,62.09a5,5,0,0,0,5,0l10.38-6a.76.76,0,0,0,.38-.66.75.75,0,0,0-.38-.66l-10.38-6a5,5,0,0,0-5,0l-10.38,6a.75.75,0,0,0-.38.66.76.76,0,0,0,.38.66Z"/><ellipse class="cls-4" cx="38.64" cy="55.58" rx="7.13" ry="4.12"/><path class="cls-21" d="M49.21,26.25H28.9l1.89,22h0c0,1.22.81,2.44,2.42,3.37a12.88,12.88,0,0,0,11.69,0c1.61-.93,2.42-2.15,2.42-3.37Z"/><path class="cls-14" d="M49.21,26.25H28.9l.32,3.61a7.86,7.86,0,0,0,1.88,1.7c3.88,2.57,10.28,3.07,14.65,1.21l-.68,16.08a3.2,3.2,0,0,1-.72,1.92A7.61,7.61,0,0,1,40,53,11.45,11.45,0,0,0,44.9,51.6c1.61-.93,2.42-2.15,2.42-3.37L48.83,30.6h0Z"/><ellipse class="cls-14" cx="39.06" cy="26.25" rx="10.15" ry="5.86"/><ellipse class="cls-14" cx="39.06" cy="24.18" rx="8.74" ry="5.05"/><path class="cls-22" d="M49.81,26h0v0l-.2-2v0c-.08-1.49-1.11-3-3.08-4.1a16.5,16.5,0,0,0-14.93,0c-2,1.16-3,2.68-3.08,4.21h0l-.18,1.75s0,.09,0,.13v0h0c-.11,1.67.94,3.36,3.15,4.64a16.86,16.86,0,0,0,15.22,0C48.89,29.35,49.94,27.65,49.81,26Z"/><ellipse class="cls-23" cx="39.06" cy="24.18" rx="8.74" ry="5.05"/><ellipse class="cls-24" cx="38.64" cy="24.18" rx="8.74" ry="5.05"/><path class="cls-14" d="M33.91,21.36a13.68,13.68,0,0,1,12.37,0l.12.08a7.2,7.2,0,0,0-1.16-.83,13.68,13.68,0,0,0-12.37,0c-3.37,1.95-3.4,5.09-.12,7.06C30.56,25.72,30.94,23.08,33.91,21.36Z"/><path class="cls-25" d="M32.87,21.49a13.68,13.68,0,0,1,12.37,0,4.63,4.63,0,0,1,2.53,3.13c.21-1.43-.63-2.91-2.53-4a13.68,13.68,0,0,0-12.37,0c-1.9,1.1-2.74,2.57-2.52,4A4.61,4.61,0,0,1,32.87,21.49Z"/><path class="cls-26" d="M46.59,19.92a16.6,16.6,0,0,0-15-.13c-4.15,2.35-4.19,6.22-.07,8.65a16.58,16.58,0,0,0,15,.13C50.67,26.22,50.7,22.35,46.59,19.92Zm-1.35,7.83a11.39,11.39,0,0,1-4,1.31l-.15-.52a.5.5,0,0,0-.48-.35H37.49a.5.5,0,0,0-.48.35l-.16.52a11.39,11.39,0,0,1-4-1.31c-3.41-2-3.41-5.17,0-7.14a13.68,13.68,0,0,1,12.37,0C48.65,22.58,48.65,25.78,45.24,27.75Z"/><path class="cls-9" d="M45.24,20.24a13.68,13.68,0,0,0-12.37,0c-1.79,1-2.64,2.4-2.55,3.75a4.46,4.46,0,0,1,2.55-3.38,13.68,13.68,0,0,1,12.37,0A4.46,4.46,0,0,1,47.79,24C47.88,22.64,47,21.27,45.24,20.24Z"/><path class="cls-9" d="M46.51,28.2a16.58,16.58,0,0,1-15-.13c-2-1.16-3-2.64-3.06-4.13-.08,1.61.94,3.25,3.06,4.5a16.58,16.58,0,0,0,15,.13c2.18-1.23,3.22-2.88,3.13-4.52C49.57,25.56,48.52,27.06,46.51,28.2Z"/><rect class="cls-27" x="37.88" y="28.83" width="2.35" height="0.51" rx="0.25"/><path class="cls-28" d="M40,28.83H38.12a.23.23,0,0,0-.24.23v0s0,0,0,.06a.25.25,0,0,1,.23-.18H40a.24.24,0,0,1,.22.18.13.13,0,0,0,0-.06v0A.23.23,0,0,0,40,28.83Z"/><path class="cls-18" d="M39.34,46a1.62,1.62,0,0,1-3.13-.83,1.4,1.4,0,0,1,1.91-.88C39,44.49,39.57,45.11,39.34,46Z"/><path class="cls-18" d="M40.62,44.26a.71.71,0,1,1-1-1c.32-.32.94-.48,1.22-.2S41,43.94,40.62,44.26Z"/><path class="cls-18" d="M38.92,42.91a.72.72,0,1,1-1.41-.26c.08-.45.49-.93.88-.86S39,42.46,38.92,42.91Z"/><path class="cls-18" d="M36.83,42.7a.71.71,0,1,1-1.32.54c-.18-.42-.09-1.05.28-1.2S36.66,42.28,36.83,42.7Z"/><path class="cls-29" d="M39.72,29.08s5.68-1.9,3.38-8.43-6.77-8.51-5-13.72a10.53,10.53,0,0,0-.19,9.94c2.64,5.71,3.22,5.05,3.19,7.79a4.93,4.93,0,0,1-2.66,4.42Z"/><path class="cls-29" d="M40.23,7.83S39.64,3.93,43.3,0c0,0-3.24,7.23-2.18,10.8A19.2,19.2,0,0,1,40.23,7.83Z"/></g></g></svg>