<svg xmlns="http://www.w3.org/2000/svg" xmlns:xlink="http://www.w3.org/1999/xlink" viewBox="0 0 309.95 407.2"><defs><style>.cls-1,.cls-13,.cls-5{fill:none;}.cls-2{fill:#f06843;}.cls-3{fill:#d15330;}.cls-4{fill:#472f2e;}.cls-5{stroke:#272525;}.cls-13,.cls-5{stroke-miterlimit:10;}.cls-6{fill:#272525;}.cls-7{clip-path:url(#clip-path);}.cls-8{fill:#f6e1cc;}.cls-9{clip-path:url(#clip-path-2);}.cls-10{fill:#f76e81;}.cls-11{fill:#8e94c6;}.cls-12{fill:#f89327;}.cls-13{stroke:#f89327;}</style><clipPath id="clip-path" transform="translate(-6.72)"><circle class="cls-1" cx="168.5" cy="196.15" r="168.5"/></clipPath><clipPath id="clip-path-2" transform="translate(-6.72)"><path class="cls-1" d="M137.46,141.74c11,5.18,22.71,9.35,34.85,10a59.23,59.23,0,0,0,35.34-9.39c13.11,7.54,31.59,5.79,41,17.72,4,5.07,5.4,11.66,6.6,18a514,514,0,0,1-5.06,214.31c-51,14.63-104.82,19.37-156.45,9.81,29-79.44,36.51-256.65,36.51-256.65S134,142.37,137.46,141.74Z"/></clipPath></defs><title>Asset 12manoncallnobg</title><g id="Layer_2" data-name="Layer 2"><g id="Layer_1-2" data-name="Layer 1"><path class="cls-2" d="M198,108c-2.8,10.84,3.8,25.85,11.17,34-.59,6.15-8.93,8.45-14.48,11s-11.82,3-17.93,3.09a76.88,76.88,0,0,1-20.41-2.07,42.25,42.25,0,0,1-19.09-10.88,57,57,0,0,0,11.25-36.1C162.51,114.35,179.38,115.66,198,108Z" transform="translate(-6.72)"/><path class="cls-2" d="M167.61,12.07c-15.21.86-41,11-44.92,31.26s-1.71,42.61,8.2,60c6.54,11.5,18.26,24.34,40.11,24.67,13.19.2,23.27.72,34.63-10.82,9.25-9.41,8-31.73,7.7-44.92-.38-15.55-5.57-33.59-14.9-46S180.94,11.32,167.61,12.07Z" transform="translate(-6.72)"/><path d="M196.48,81.78a12.52,12.52,0,0,1-3.07,8.46,13.27,13.27,0,0,1-17.17,3,12.43,12.43,0,0,1-5.76-6.92A15.33,15.33,0,0,0,177,91.86a13.3,13.3,0,0,0,15.3-2.67A15.41,15.41,0,0,0,196.48,81.78Z" transform="translate(-6.72)"/><path d="M173.28,46.83a17.43,17.43,0,0,0,4,8.29,42.07,42.07,0,0,0,7.16,6c.64.48,1.27.94,1.93,1.46a9,9,0,0,1,1.88,1.88,3.94,3.94,0,0,1,.73,2.91,6,6,0,0,1-1.16,2.5,30,30,0,0,1-7.11,6.59A60.45,60.45,0,0,0,186.54,69a4.88,4.88,0,0,0,.72-1.86,2.1,2.1,0,0,0-.52-1.57,17.61,17.61,0,0,0-3.46-2.83,31.46,31.46,0,0,1-7.2-6.61A14.09,14.09,0,0,1,173.28,46.83Z" transform="translate(-6.72)"/><path d="M193.52,125.54a23.94,23.94,0,0,1-4.29,2.24,22.13,22.13,0,0,1-4.76,1.19,28.55,28.55,0,0,1-9.76-.55c-1.59-.35-3.15-.82-4.69-1.3s-3-1.09-4.49-1.78a56.54,56.54,0,0,1-8.45-4.6c3,1,6,2.16,9,3.14a77.21,77.21,0,0,0,9,2.58,35.84,35.84,0,0,0,9.21,1,27.81,27.81,0,0,0,4.61-.58A46,46,0,0,0,193.52,125.54Z" transform="translate(-6.72)"/><path d="M152.82,60c-.41-2.16.5-4.15,2-4.45s3.11,1.22,3.53,3.38-.5,4.16-2,4.45S153.24,62.14,152.82,60Z" transform="translate(-6.72)"/><path d="M194.17,53.82c-.41-2.16.5-4.15,2-4.44s3.12,1.22,3.53,3.38-.49,4.15-2,4.45S194.59,56,194.17,53.82Z" transform="translate(-6.72)"/><path class="cls-3" d="M152.49,74.3c-.39-3.93,3.47-7.52,8.62-8s9.65,2.25,10,6.17-3.47,7.52-8.62,8S152.88,78.22,152.49,74.3Z" transform="translate(-6.72)"/><path class="cls-3" d="M192,68.93c-.39-3.93,3.46-7.52,8.62-8s9.64,2.25,10,6.17-3.46,7.52-8.61,8S192.42,72.85,192,68.93Z" transform="translate(-6.72)"/><path class="cls-4" d="M208.18,44.38c-3.78-7.18-12.54-9.51-20.64-5.48-1,.48-2.15,1.45-2.06,2.53s1.36,1,2.35.84C194.83,40.82,201.63,41.85,208.18,44.38Z" transform="translate(-6.72)"/><path class="cls-4" d="M142.87,55.91c.95-8.06,8.29-13.37,17.3-12.52,1.07.1,2.53.58,2.83,1.63s-.9,1.46-1.89,1.62C154.06,47.8,148.08,51.2,142.87,55.91Z" transform="translate(-6.72)"/><path class="cls-4" d="M206,39.22c1.93-.39.38-7-1.07-7.76,1.28-1.54.58-5.07-1.32-5.71,1-1.9.51-4.73-1.58-5.19a5,5,0,0,0-3.21-6.31c.46-1.95-.15-5.71-3.2-6-.35-1.38,0-3.85-3.73-3.91-.54,0-.83-2.73-4.18-2.82-1.4-2.38-3.23-1.69-5.58-.24-.48-.78-3.71-2.27-4.33.6,0,.21-4.46-2.78-4.88.8,0,0-.3-2-4.36.43A5.46,5.46,0,0,0,164.88,2a2.39,2.39,0,0,0-1.67,1.87,1.91,1.91,0,0,0-2.15-.82A1.88,1.88,0,0,0,159.77,5a3.55,3.55,0,0,0-5.18.93,3.45,3.45,0,0,0-2.58-.7c-.88.24-1.31,1.66-.6,2.76a4.89,4.89,0,0,0-6.74,1.27c-1.55-.53-2.34-.79-3.43-.34-.29.12-2,1.36-2,1.36a3.19,3.19,0,0,0-3.54-.71c-.59.24-1.35,2.23-.69,2.46a2.65,2.65,0,0,0-3,.06,2.61,2.61,0,0,0-.92,2.82,2.25,2.25,0,0,0-2.7-.16,2.21,2.21,0,0,0-.78,2.57,1.82,1.82,0,0,0-2.13,0c-.6.47-1.61,1.1-1.31,1.8-1.08-.31-2.06-.7-2.76.17s-1.35,2.41-.82,3.39c-1.54-.17-3.23,1.26-2.81,2.74-1.58-.06-1.7,1.81-1.41,3.36-1,0-2.64.32-3.07,1.17a4.31,4.31,0,0,0,.49,3.45c-1.62.91-1.76,2.63-.67,4.75-1-.22-1.83,1.58-2.29,2.53S112,43.5,112,43.5l-.11,0a2,2,0,0,0-1.17,3c.36.62.76,1.48,1,1.56a2.49,2.49,0,0,0-.9,2.39,2.53,2.53,0,0,0,1.72,1.9,1.65,1.65,0,0,0-.64,1.88,1.69,1.69,0,0,0,1.67,1.1,2.32,2.32,0,0,0-1.31,2.15,2.35,2.35,0,0,0,1.5,2,2.15,2.15,0,0,0,1.43,4,1.9,1.9,0,0,0,1.23,3.4A1.9,1.9,0,0,0,118.5,70a1.67,1.67,0,0,0,1.58,2.85,1.83,1.83,0,0,0-.06,2.34,1.86,1.86,0,0,0,2.33.37,1.75,1.75,0,0,0,2.47,1.71,1.75,1.75,0,0,0,.29,1.77,4.57,4.57,0,0,0,2.17-6c-.06-1.2.65-2.29,1-3.44s.18-2.71-1-3.12a3.68,3.68,0,0,0,1.87-2.89A3.94,3.94,0,0,0,128,60.05c1.45-1.43,1.54-2.52.82-4.1a1.94,1.94,0,0,0-2-1.18A7.39,7.39,0,0,0,128.26,52c.26-.83-1.21-2.46-2.08-2.6a3,3,0,0,0,2.53-2.3c.17-.82-.23-2.43-1-2.72.72,0,2.58.2,3.31-1.81a3.4,3.4,0,0,0-.73-2.48c1.7.52,4.73.11,4.75-1.66,1.21,1,2.4-.52,2.9-2,1.48.2,3,0,3.76-1.26a2.37,2.37,0,0,0,2.47.79,2.79,2.79,0,0,0,2-2.06c1,1.16,3.09.6,4-.6a2.23,2.23,0,0,0,3.33-.69,2.32,2.32,0,0,0,3.23-.66c1.81-.09,2.65-.32,3.32-2,.8,1,4,.23,4.65-.85a2.34,2.34,0,0,0,3.73-.89A2.28,2.28,0,0,0,172,27.7c.94.89,2.59.21,3.66-.5a2.73,2.73,0,0,0,3.72.17c1,.85,2.25-1.56,2.41-1.48,3.18,1.53,3.74-1,3.74-1a2.85,2.85,0,0,0,4-.81,3.34,3.34,0,0,0,2.61,1.63c1-.05,1.46-1.81,1.84-2.69.27.63,1.65,2.19,2.33,2.09s1.65,1.47,1.72.79C198.9,27.26,205,39.44,206,39.22Z" transform="translate(-6.72)"/><path class="cls-2" d="M121.79,71.45a7.4,7.4,0,0,0-7.38,1.14A8.75,8.75,0,0,0,111.35,79a17,17,0,0,0,1.46,7.08A17.49,17.49,0,0,0,117,92.57a10.13,10.13,0,0,0,7.39,2.8,3.29,3.29,0,0,0,2.51-1.11,3.39,3.39,0,0,0,.14-2.73C125.48,85,124,78.55,121.79,71.45Z" transform="translate(-6.72)"/><path d="M113.91,80.31a4.64,4.64,0,0,1,.93-2.46,6.39,6.39,0,0,1,2-1.74,6.17,6.17,0,0,1,2.53-.78,4.54,4.54,0,0,1,2.58.5l-2.19,1c-.68.32-1.32.65-1.94,1s-1.25.71-1.88,1.12Z" transform="translate(-6.72)"/><path d="M116.28,78.21a7.77,7.77,0,0,1,2.23,2.93c.53,1.1.91,2.21,1.31,3.25a17.36,17.36,0,0,0,1.38,2.92,7.57,7.57,0,0,0,2.27,2.44A4.59,4.59,0,0,1,120,88.31a8.65,8.65,0,0,1-2-3.22,21.41,21.41,0,0,1-.92-3.44C116.8,80.51,116.59,79.41,116.28,78.21Z" transform="translate(-6.72)"/><path class="cls-5" d="M182.3,48.89c1.7-3.57,7.45-6.39,12.22-7.13s10.81.16,14.12,3.76c1.88,4.89,2.36,11.26-.18,16.24-2.17,4.24-7.33,6.83-12.09,6.58a15.24,15.24,0,0,1-11.78-6.79C181.94,57.59,181.44,50.72,182.3,48.89Z" transform="translate(-6.72)"/><path class="cls-5" d="M170.32,51.75c-2.72-2.86-9.07-3.75-13.83-3-4.41.73-9.41,3.13-11.74,7a3.68,3.68,0,0,0-.54,1.82,21.83,21.83,0,0,0,3.53,12.45c3.12,4.48,10.15,6.53,15.25,4.57a15.26,15.26,0,0,0,9.11-10.14C173.37,59.9,171.71,53.21,170.32,51.75Z" transform="translate(-6.72)"/><path class="cls-6" d="M183,47.57a17.83,17.83,0,0,0-13.46,3.2A6.94,6.94,0,0,1,171.2,53a21.25,21.25,0,0,1,10.53-2.5A3.46,3.46,0,0,1,183,47.57Z" transform="translate(-6.72)"/><path class="cls-6" d="M149.78,50.51c-3.92,1.72-6.76,1.91-11.52,3.56-.54.19-1.86.48-2.08,1a2.73,2.73,0,0,0,.06,1.76l.63,2.34a3.27,3.27,0,0,1,3,.41c2.18,1.28,3.66,3.46,5.29,5.6-.43-2.6-.59-3.93-1-6.53-.23-1.36-.09-3.37,1-4.13A54.87,54.87,0,0,0,149.78,50.51Z" transform="translate(-6.72)"/><path class="cls-6" d="M203.15,42.68c2.78.66,5.79.4,9,.51a11.78,11.78,0,0,1,1,3.34,11.49,11.49,0,0,0-3.69,3C207.79,46.3,206.25,43.82,203.15,42.68Z" transform="translate(-6.72)"/><path class="cls-6" d="M118.18,71c.14,0,12.13-7.52,19.2-12.18,0,0-.88-3.93-.85-4.15-6.18,4.14-12.47,8.58-18.65,12.71a14.56,14.56,0,0,0-3.11,2.52c-.87,1-2.7,4.25-2.55,5.58C113,73.44,116.11,71.08,118.18,71Z" transform="translate(-6.72)"/><path class="cls-4" d="M130.49,81.58c4.66,8.08,5.53,11.85,11.79,18.77S157.63,112,168,115.67c2.68,1,7.28,2.35,10,1.56a9.07,9.07,0,0,0,6.17-5.47c.63-1.85.69-4.24,2.42-5.16,1.53-.82,3.44.13,4.65,1.38s2.14,2.83,3.64,3.71a6.55,6.55,0,0,0,6.56-.39,15.3,15.3,0,0,0,4.65-5c6.18-9.54,8.37-25.92,7-37.2,1.69,10,2.9,18.67,2.66,27-.36,12.77-5.68,20.72-12.23,25.87-9.8,7.7-17.62,7.51-30,6.83-5.27-.29-23.23-3.51-35.58-15.86-7.95-8-15.7-24.43-14.63-35.61a3.43,3.43,0,0,1,.62-2c.9-1.06,2.75-.7,3.67.35S129.4,79.7,130.49,81.58Z" transform="translate(-6.72)"/><path class="cls-4" d="M182.44,79.12A15.21,15.21,0,0,0,161.6,90.85c-.66,4.29.52,8.62,1.7,12.8l3.57,12.7a5.18,5.18,0,0,0,.85,2,1.8,1.8,0,0,0,1.89.69c1.14-.39,1.19-2,1-3.17l-2.7-19.2c-.25-1.79-.46-3.77.57-5.26s3-2,4.69-2.68A16.81,16.81,0,0,0,182.44,79.12Z" transform="translate(-6.72)"/><path class="cls-4" d="M180.33,80.07a11.47,11.47,0,0,1,9.32-5.91,18.49,18.49,0,0,1,11,2.92,13,13,0,0,1,4.87,4.59,17.27,17.27,0,0,1,1.63,6.53q1.11,9.93,2.24,19.86a5.52,5.52,0,0,1,0,2.22,2,2,0,0,1-1.52,1.47c-1.25.13-2-1.29-2.46-2.47a170.82,170.82,0,0,1-6.07-21.65,6.92,6.92,0,0,0-1.7-3.88c-1.8-1.62-4.58-.89-7-.54C186.46,83.83,182.12,83,180.33,80.07Z" transform="translate(-6.72)"/><g class="cls-7"><path class="cls-8" d="M137.46,141.74c11,5.18,22.71,9.35,34.85,10a59.23,59.23,0,0,0,35.34-9.39c13.11,7.54,31.59,5.79,41,17.72,4,5.07,5.4,11.66,6.6,18a514,514,0,0,1-5.06,214.31c-51,14.63-104.82,19.37-156.45,9.81,29-79.44,36.51-256.65,36.51-256.65S134,142.37,137.46,141.74Z" transform="translate(-6.72)"/><g class="cls-9"><path class="cls-10" d="M122.09,150.29c10.65,7.64,23.5,11.72,36.46,13.39s26.09,1,39.11-.05c19-1.59,38.48-4.3,55.37-13.34,0,0,2.3,4.81,2.17,6.1-22.36,10.76-47.92,11.73-72.66,12.51-14.64.46-29.58.89-43.62-3.34a135.78,135.78,0,0,1-16.06-6.37c-2-.89-4.18-2-4.92-4.05S119.31,150.22,122.09,150.29Z" transform="translate(-6.72)"/><path class="cls-10" d="M116.82,163.47A224.7,224.7,0,0,0,252,166.39s.56,6.81.25,6.47c-23.28,3.08-46.14,8.07-69.61,8.3A197.28,197.28,0,0,1,113,168.56C114.07,167.07,115.17,165.58,116.82,163.47Z" transform="translate(-6.72)"/><path class="cls-10" d="M120.13,184.51c30.05,3,60.38,6,90.6,4.17A279.72,279.72,0,0,0,256,182.22s-1.28,7.92-1.59,7.7a502.63,502.63,0,0,1-144.3-2,5.11,5.11,0,0,0,2-5.49C114.67,182.94,116.93,184.19,120.13,184.51Z" transform="translate(-6.72)"/><path class="cls-10" d="M118.24,198.36c30.05,3,60.38,6,90.6,4.17a279.72,279.72,0,0,0,45.27-6.46s-1.28,7.92-1.59,7.7a502.62,502.62,0,0,1-144.3-2,5.11,5.11,0,0,0,2-5.49C112.78,196.79,115,198,118.24,198.36Z" transform="translate(-6.72)"/><path class="cls-10" d="M120.6,214.12c30.05,3,60.38,6,90.6,4.17a277.64,277.64,0,0,0,45.28-6.46s-1.29,7.92-1.6,7.7a502.63,502.63,0,0,1-144.3-2,5.13,5.13,0,0,0,2-5.49C115.14,212.55,117.4,213.8,120.6,214.12Z" transform="translate(-6.72)"/><path class="cls-10" d="M124.08,225.65c29.92,4.1,60.13,8.22,90.39,7.51A278.74,278.74,0,0,0,260,228.38s-1.57,7.87-1.87,7.63A502.56,502.56,0,0,1,114,228.66a5.11,5.11,0,0,0,2.19-5.41C118.68,223.88,120.9,225.22,124.08,225.65Z" transform="translate(-6.72)"/><path class="cls-10" d="M126.74,257.58c30.05,3,60.38,6,90.61,4.17a277.52,277.52,0,0,0,45.27-6.46s-1.29,7.92-1.6,7.7a502.27,502.27,0,0,1-144.3-2,5.1,5.1,0,0,0,2-5.48C121.28,256,123.55,257.26,126.74,257.58Z" transform="translate(-6.72)"/><path class="cls-10" d="M126.74,274.3c30.05,3,60.38,6,90.61,4.17A279.72,279.72,0,0,0,262.62,272s-1.29,7.92-1.6,7.7a502.63,502.63,0,0,1-144.3-2,5.12,5.12,0,0,0,2-5.49C121.28,272.72,123.55,274,126.74,274.3Z" transform="translate(-6.72)"/><path class="cls-10" d="M126.74,288.63c30.05,3,60.38,6,90.61,4.16a278.61,278.61,0,0,0,45.27-6.45s-1.29,7.92-1.6,7.7a502.63,502.63,0,0,1-144.3-2,5.1,5.1,0,0,0,2-5.48C121.28,287.05,123.55,288.31,126.74,288.63Z" transform="translate(-6.72)"/><path class="cls-10" d="M126.64,306.8c30.16,1.61,60.59,3.21,90.7,0a279.9,279.9,0,0,0,44.94-8.53s-.93,8-1.25,7.76a502.41,502.41,0,0,1-144.25,4.6,5.1,5.1,0,0,0,1.75-5.57C121.12,305.48,123.44,306.63,126.64,306.8Z" transform="translate(-6.72)"/><path class="cls-10" d="M127.59,323c30.15,1.61,60.59,3.21,90.69,0a279.49,279.49,0,0,0,44.94-8.53s-.93,8-1.25,7.76a502.71,502.71,0,0,1-144.24,4.6,5.14,5.14,0,0,0,1.75-5.58C122.06,321.72,124.38,322.87,127.59,323Z" transform="translate(-6.72)"/><path class="cls-10" d="M125.7,340.23c30.15,1.61,60.59,3.21,90.69,0a279.49,279.49,0,0,0,44.94-8.53s-.93,8-1.25,7.76a502.35,502.35,0,0,1-144.24,4.6,5.13,5.13,0,0,0,1.75-5.57C120.17,338.91,122.49,340.06,125.7,340.23Z" transform="translate(-6.72)"/><path class="cls-10" d="M123.81,351.7c30.15,1.6,60.59,3.21,90.69,0a278.4,278.4,0,0,0,44.94-8.53s-.93,8-1.25,7.77A502.71,502.71,0,0,1,114,355.53,5.12,5.12,0,0,0,115.7,350C118.28,350.37,120.6,351.52,123.81,351.7Z" transform="translate(-6.72)"/><path class="cls-10" d="M124.75,367c30.16,1.61,60.59,3.21,90.7,0a277.72,277.72,0,0,0,44.94-8.53s-.93,8-1.25,7.77a502.77,502.77,0,0,1-144.25,4.59,5.09,5.09,0,0,0,1.75-5.57C119.23,365.66,121.54,366.81,124.75,367Z" transform="translate(-6.72)"/><path class="cls-10" d="M118.3,385.34c32.41,1.5,65.13,3,97.51-.31a320.27,320.27,0,0,0,48.35-8.69s-1,8-1.37,7.77a581,581,0,0,1-155.11,5.1c1.89-1.53,2.63-3.69,1.9-5.58C112.36,384,114.85,385.18,118.3,385.34Z" transform="translate(-6.72)"/><path class="cls-10" d="M120.77,240.05c29.92,4.07,60.13,8.15,90.4,7.41a279.87,279.87,0,0,0,45.47-4.84s-1.56,7.87-1.87,7.64a502.54,502.54,0,0,1-144.13-7.19,5.1,5.1,0,0,0,2.18-5.41C115.37,238.29,117.58,239.62,120.77,240.05Z" transform="translate(-6.72)"/></g><path class="cls-11" d="M229.66,141.84c5.66,8.21,11.34,16.46,15.2,25.51a43.17,43.17,0,0,0-30.67.38c-1.78-4.34-.58-9.36-1.67-13.92-.72-3-6.38-12.75-8-15.41-2.64-4.23-4-9.22-5.29-13.13C198.3,122.49,221.35,131.37,229.66,141.84Z" transform="translate(-6.72)"/><path class="cls-11" d="M214.84,166.26c-2.48-.23-5,.06-6.74,1.23a2,2,0,0,0-.9,1.87c4.4,49.24,28.37,94.58,37.86,143.11,5.79,29.59,3.76,58,3.65,88.57,3.41-.37,46.82.74,50.11-.25,8.05-32.68,13.06-71.18,14.37-105.17.67-17.56-9.64-52.48-18.54-83.59-3.78-13.19-9.08-34.38-17.38-45.25-8.48-11.12-43-23.09-60.79-28.78C221.69,147.27,221,159.6,214.84,166.26Z" transform="translate(-6.72)"/><path class="cls-6" d="M227.83,141.11a51.46,51.46,0,0,1,5.74,6,52.51,52.51,0,0,1,4.73,6.86,45.3,45.3,0,0,1,5.61,15.74v0a1,1,0,0,1-.83,1.12,1,1,0,0,1-.62-.11c-2.17-1.19-4.34-2.32-6.54-3.33a30.57,30.57,0,0,0-6.84-2.23,17.79,17.79,0,0,0-7.12.11,12.89,12.89,0,0,0-6.35,3.39,12.12,12.12,0,0,1,6.1-4.3,17.59,17.59,0,0,1,7.6-.7,28.45,28.45,0,0,1,7.34,2c2.34.95,4.55,2.14,6.74,3.28L242,170a51.11,51.11,0,0,0-5.06-15.27,65.24,65.24,0,0,0-4.14-7C231.24,145.42,229.57,143.25,227.83,141.11Z" transform="translate(-6.72)"/><path class="cls-6" d="M213.49,164.63a51.4,51.4,0,0,1,4.15,6.62,23.27,23.27,0,0,1,1.37,3.68l1,3.79c1.27,5,2.73,10,4.32,15,3.1,9.92,6.7,19.68,10.36,29.42s7.33,19.49,10.73,29.35,6.42,19.86,9,30,4.68,20.34,6.44,30.63,3.07,20.64,3.91,31,1.35,20.82,1.35,31.24-.41,20.84-1.3,31.21c.44-10.4.61-20.8.32-31.2-.09-2.6-.1-5.2-.23-7.79l-.39-7.79c-.37-5.18-.73-10.37-1.28-15.53-1.08-10.33-2.38-20.64-4.18-30.87s-4-20.39-6.57-30.45-5.49-20-8.76-29.89-7-19.59-10.45-29.4S226.3,204,223.38,194c-1.45-5-2.78-10-3.91-15.14l-.86-3.8a24,24,0,0,0-1.24-3.67A52.69,52.69,0,0,0,213.49,164.63Z" transform="translate(-6.72)"/><path class="cls-6" d="M272.79,179.27q1.21,6.09,2.36,12.21c.73,4.08,1.34,8.18,2,12.28,1.17,8.21,2.18,16.45,2.92,24.72a433,433,0,0,1,1.55,49.78,383.17,383.17,0,0,1-4.73,49.58c-.62,4.11-1.47,8.17-2.27,12.25s-1.79,8.1-2.71,12.15c-.25,1-.47,2-.75,3l-.83,3-1.67,6c-1.15,4-2.5,7.91-3.76,11.85l1.63-6c.53-2,1.17-4,1.62-6l1.45-6,.72-3c.24-1,.42-2,.63-3,.82-4.06,1.78-8.08,2.43-12.17s1.47-8.15,2-12.25a412.91,412.91,0,0,0,4.25-49.4,474.31,474.31,0,0,0-1.07-49.59c-.56-8.26-1.4-16.5-2.37-24.72-.52-4.11-1-8.23-1.57-12.33S273.39,183.37,272.79,179.27Z" transform="translate(-6.72)"/><path class="cls-6" d="M287.85,197.67a65.76,65.76,0,0,1-1,8.42c-.48,2.79-1.11,5.53-1.82,8.27s-1.57,5.42-2.54,8.07a65.89,65.89,0,0,1-3.36,7.78c.52-2.79,1.18-5.52,1.86-8.24s1.4-5.42,2.11-8.13,1.45-5.4,2.23-8.1S286.92,200.35,287.85,197.67Z" transform="translate(-6.72)"/><path class="cls-6" d="M280.37,238.41c-2.73.23-5.45.35-8.18.53l-8.16.46-8.16.47-8.14.56.88-1.2c.67,2.67,1.38,5.34,2,8l2,8.05-.93-.71c4.68-.06,9.36-.1,14-.07,2.34,0,4.68,0,7,.08s4.68.08,7,.19c-2.33.22-4.66.37-7,.55s-4.67.32-7,.45q-7,.4-14,.67a.92.92,0,0,1-.92-.69v0l-2.07-8c-.7-2.67-1.33-5.36-2-8a1,1,0,0,1,.71-1.18l.17,0c2.73-.2,5.46-.3,8.19-.39s5.47-.1,8.2-.12,5.46,0,8.19.12S277.64,238.26,280.37,238.41Z" transform="translate(-6.72)"/><path class="cls-6" d="M254.51,255.87c2.19,11.21,4,22.49,5.63,33.78q1.23,8.48,2.31,17t2,17l-.66-.53c2.35-.12,4.71-.33,7.06-.65,1.17-.16,2.34-.35,3.51-.58s2.33-.45,3.49-.73c-1.12.4-2.25.79-3.4,1.11s-2.31.62-3.48.89a58.27,58.27,0,0,1-7.09,1.19.6.6,0,0,1-.65-.5v0c-1-5.63-1.82-11.27-2.66-16.91s-1.62-11.3-2.35-17C256.74,278.61,255.43,267.27,254.51,255.87Z" transform="translate(-6.72)"/><path class="cls-6" d="M280.18,302.51a21.72,21.72,0,0,1,4.7-3.95,28.15,28.15,0,0,1,11.53-4.21,21.77,21.77,0,0,1,6.14,0c-2,.52-3.92,1-5.83,1.52s-3.78,1.15-5.62,1.82-3.67,1.41-5.48,2.22S282,301.63,280.18,302.51Z" transform="translate(-6.72)"/><path class="cls-6" d="M300.87,305.63c-1.89.08-3.72.08-5.55.1s-3.63.08-5.44.15-3.62.18-5.44.3-3.64.28-5.53.35a22.34,22.34,0,0,1,5.3-1.89,30.55,30.55,0,0,1,11.22-.46A22.43,22.43,0,0,1,300.87,305.63Z" transform="translate(-6.72)"/><path class="cls-11" d="M145.05,128.36c-2.52,8.45-8.68,17.75-4.07,24.09,2.78,3.8,13.29,8.22,17,9.27a1.5,1.5,0,0,1,1.08,1.39c2.41,82.08-16.21,169-54,241.7,0,0-76.67-2.24-75.93-4.61C49.51,362.14,70,323.83,83.33,282.74s19.45-85.54,10-126.58l28-16.11C129.06,135.59,138,130.86,145.05,128.36Z" transform="translate(-6.72)"/><path class="cls-11" d="M96.92,156.58c-11-1.41-22.28,3.34-30.58,10.85S52.35,185,48,195.33,40.34,216.5,36.1,226.92c-6.7,16.47-16,32-20.43,49.19s-3.25,37.43,8.91,50.32c5,5.35,12.15,9.2,19.43,8.54,5.76-.53,10.92-3.74,15.47-7.34,18.29-14.49,29.68-35.82,41.86-55.83,7.85-12.88,16.25-25.51,22.24-39.38s9.51-29.27,7-44.18S118.66,159.37,96.92,156.58Z" transform="translate(-6.72)"/><path d="M147.72,158.11c-1.19,3-2.62,5.78-4.05,8.6-.75,1.39-1.45,2.8-2.22,4.18s-1.49,2.77-2.26,4.14v0a1,1,0,0,1-1.33.37.78.78,0,0,1-.15-.1c-1.87-1.59-3.75-3.21-5.59-4.87-.92-.83-1.83-1.69-2.72-2.57-.43-.44-.88-.88-1.29-1.35A6.86,6.86,0,0,1,127,165a24.05,24.05,0,0,0,3,2.19c1,.7,2,1.4,3,2.12s2,1.44,3,2.2,2,1.5,2.94,2.3l-1.49.29c.72-1.41,1.5-2.8,2.29-4.17s1.63-2.72,2.46-4.06A90.9,90.9,0,0,1,147.72,158.11Z" transform="translate(-6.72)"/><path class="cls-12" d="M136.08,67,155,129.45a7.59,7.59,0,0,1-1.21,6.77l-15.94,21a1.16,1.16,0,0,1-2-.39L118.1,94.2a6,6,0,0,1,.66-4.78l14.08-22.83A1.79,1.79,0,0,1,136.08,67Z" transform="translate(-6.72)"/><path class="cls-2" d="M120.37,176A92,92,0,0,0,136,129.74a54.86,54.86,0,0,0,6.68-5,7,7,0,0,1,3.11-.81,11.68,11.68,0,0,1,5.58,1.36,12.63,12.63,0,0,1,3.77,3.44s.25,6.51,1.92,9.12a3,3,0,0,0,4.21.28c1-.94,1.25-2.44,1.42-3.81.28-2.24.43-4.51.83-6.73.65-3.53,0-4.67-1.79-6.78a7.1,7.1,0,0,0,.14-6.14,36.3,36.3,0,0,0-3.11-5.23,10.16,10.16,0,0,0,4.08,2,3.11,3.11,0,0,0,3.62-4.54,10,10,0,0,0-1.6-2.27c-2.54-3-5.07-6-7.73-9.13a4.12,4.12,0,0,0-1.72-1.22,76.37,76.37,0,0,0-15-3.18,14.25,14.25,0,0,0-4.27-.18,5.07,5.07,0,0,0-3.6,2.27c1.35-4.38,2.71-9.11,1.29-13.47a5.32,5.32,0,0,0-1.23-2.17,2.58,2.58,0,0,0-2.27-.79c-1.49.3-2.14,2-2.53,3.54a308.65,308.65,0,0,1-10.12,31c-4.88,2.44-7.43,7.9-9.33,13.07-4.65,12.59-7.79,26.06-15.56,37C100.24,167.79,109.23,172.41,120.37,176Z" transform="translate(-6.72)"/><path d="M132.85,92.55A35.81,35.81,0,0,1,130,97.86a51.23,51.23,0,0,1-3.58,4.84,50.35,50.35,0,0,1-4.12,4.4,33.93,33.93,0,0,1-4.69,3.81c1.11-1.71,2.32-3.3,3.54-4.86s2.47-3.11,3.73-4.63,2.56-3,3.88-4.51S131.38,94,132.85,92.55Z" transform="translate(-6.72)"/><path d="M158.39,109.18c-3-2.76-6-5.47-9-8.06l-1.16-1a6.9,6.9,0,0,0-1.08-.8,1.32,1.32,0,0,0-.91-.17,3.12,3.12,0,0,0-1.09.42L140,102.75c-3.48,2.08-7,4.13-10.51,6.08s-7.12,3.87-10.8,5.6c3.25-2.44,6.6-4.72,10-6.93s6.83-4.35,10.28-6.46c1.77-1,3.43-2.06,5.29-3.09a5,5,0,0,1,1.75-.57,3.17,3.17,0,0,1,2,.46,7.91,7.91,0,0,1,1.31,1.06l1.1,1.07A68.71,68.71,0,0,1,158.39,109.18Z" transform="translate(-6.72)"/><path d="M161.74,120.85a44.75,44.75,0,0,0-4.18-3.86,36.1,36.1,0,0,0-4.51-3.3,6.62,6.62,0,0,0-2.3-1,18.55,18.55,0,0,0-2.71-.09,36.52,36.52,0,0,0-5.54.44c-3.79.55-7.58.9-11.3,1.43a53,53,0,0,0-10.95,2.83A32.59,32.59,0,0,1,130.9,113c3.77-.87,7.57-1.3,11.31-1.88a35.65,35.65,0,0,1,5.84-.35,19.37,19.37,0,0,1,3,.26,7.24,7.24,0,0,1,2.87,1.37,28.81,28.81,0,0,1,4.33,3.9A27.21,27.21,0,0,1,161.74,120.85Z" transform="translate(-6.72)"/><path d="M131.79,123.19a4.68,4.68,0,0,1,1.92.77,5.55,5.55,0,0,1,1.44,1.42,5.21,5.21,0,0,1,.83,1.88,4,4,0,0,1-.1,2.1,12.2,12.2,0,0,1-1.33-1.45c-.38-.47-.71-.92-1-1.38s-.64-1-.94-1.49A8.3,8.3,0,0,1,131.79,123.19Z" transform="translate(-6.72)"/><path d="M144.07,91.41a43.07,43.07,0,0,1,6.68.82,35.7,35.7,0,0,1,6.51,1.92.66.66,0,0,1,.29.2l0,0c1.57,1.75,3.09,3.55,4.62,5.34s3,3.61,4.46,5.47a6.79,6.79,0,0,1,1.1,1.68,3.15,3.15,0,0,1,.07,2.28,5.71,5.71,0,0,1-1,1.8,3.42,3.42,0,0,1-1.81,1.14,5.15,5.15,0,0,1-3.74-.79,31.59,31.59,0,0,0-3-1.81,17.25,17.25,0,0,1,3.35,1.17,4.64,4.64,0,0,0,3.08.26,2.86,2.86,0,0,0,1.6-2.21c.22-.86-.2-1.45-1-2.36-1.57-1.75-3.07-3.56-4.6-5.35s-3-3.63-4.45-5.48l.33.24a60.17,60.17,0,0,0-6.11-2.42C148.36,92.65,146.22,92,144.07,91.41Z" transform="translate(-6.72)"/><path d="M162.33,121.43a4,4,0,0,1,2.36,2.3,7.68,7.68,0,0,1,.51,3.37c-.13,2.21-.48,4.24-.8,6.35-.21,1.05-.32,2.05-.66,3.21a5,5,0,0,1-.9,1.71,3.07,3.07,0,0,1-1.82,1.06,4,4,0,0,1-3.44-1.21,8.49,8.49,0,0,1-1.68-2.83,13.33,13.33,0,0,0,2.3,2.07,3,3,0,0,0,2.46.45c1.38-.41,1.39-2.71,1.77-4.79L163,130l.65-3.06a8.23,8.23,0,0,0,.1-2.92A4.23,4.23,0,0,0,162.33,121.43Z" transform="translate(-6.72)"/><path d="M159.37,110.5a8.76,8.76,0,0,1,3.27,4.57,6.58,6.58,0,0,1,.19,3,4.28,4.28,0,0,1-1.37,2.59,15.13,15.13,0,0,0-.2-2.63,20.71,20.71,0,0,0-.54-2.36l-.75-2.42A14.55,14.55,0,0,1,159.37,110.5Z" transform="translate(-6.72)"/><path class="cls-11" d="M141.15,178.75c-13.42-10.43-26.06-21.47-45.27-29.15C78.52,180.15,60.94,211,37.17,236.77c-10.73,11.64-23.06,22.79-28,37.88-5,15.28-1.57,32.24,4.88,47,3.85,8.78,9.92,18,19.29,19.52,5.56.92,11.2-1.11,16.15-3.82,18-9.86,29.81-28.39,37.59-47.52s9.93-33.3,17.74-52.42C112.71,218,139.41,178.94,141.15,178.75Z" transform="translate(-6.72)"/><path d="M125.5,166c2.55,2.25,5.27,4.26,7.9,6.42a41.9,41.9,0,0,1,7.31,7.21.58.58,0,0,1,0,.61l0,0c-8.95,15.88-18.55,31.41-28.66,46.6s-20.74,30-32.07,44.3C90.26,256.1,100.48,241,110.45,225.8s19.72-30.62,29.3-46.11l0,.62a45.25,45.25,0,0,0-6.8-7.4C130.48,170.64,127.86,168.46,125.5,166Z" transform="translate(-6.72)"/><path d="M97.36,248c-1.8,6.55-3,13.2-4.14,19.86s-2.14,13.36-3.86,20a74.88,74.88,0,0,1-8.19,18.79,80.76,80.76,0,0,1-12.7,16,114.34,114.34,0,0,0,11.35-16.74,85.93,85.93,0,0,0,7.61-18.54c.9-3.2,1.53-6.53,2.21-9.84s1.32-6.64,2.06-10A117.74,117.74,0,0,1,97.36,248Z" transform="translate(-6.72)"/><path d="M95.34,151.57A58.62,58.62,0,0,1,89,165.12a102.62,102.62,0,0,1-9,12c-3.24,3.81-6.65,7.46-10,11.16s-6.64,7.39-9.62,11.33a83,83,0,0,0-8,12.39c-2.31,4.36-4.29,8.93-6.48,13.42a83.27,83.27,0,0,1-7.52,13,38,38,0,0,1-10.86,10.27,37.4,37.4,0,0,0,5.55-5,45.55,45.55,0,0,0,4.5-5.88,90.24,90.24,0,0,0,6.91-13.13c2-4.54,4-9.14,6.22-13.63a67.83,67.83,0,0,1,3.77-6.56l1-1.6,1.09-1.54c.73-1,1.44-2.06,2.23-3,6.16-8,13.35-14.94,20-22.29S91.62,160.87,95.34,151.57Z" transform="translate(-6.72)"/><path d="M56.4,182.29c1,2.63,1.2,5.35,1.69,7.85a33,33,0,0,0,.94,3.71c.39,1.24.84,2.5,1.2,3.86a12.83,12.83,0,0,1-4.1-7.2,18.7,18.7,0,0,1-.25-4.14A21.2,21.2,0,0,1,56.4,182.29Z" transform="translate(-6.72)"/><path d="M49.54,196.3a9.93,9.93,0,0,1,2.85-.28,8.16,8.16,0,0,1,2.85.64,5.75,5.75,0,0,1,2.4,1.88,5.51,5.51,0,0,1,1.08,2.73c-.82-.57-1.5-1.15-2.19-1.62a11.3,11.3,0,0,0-2.09-1.16c-.74-.32-1.54-.61-2.37-.93A12.69,12.69,0,0,1,49.54,196.3Z" transform="translate(-6.72)"/><path d="M142.79,166.27l-.58,13.67-.93,13.66L140,207.23l-1.65,13.6c-2.42,18.1-5.86,36.06-10,53.85-4.34,17.75-9.42,35.31-15.39,52.57l-4.64,12.89-4.9,12.78L98.1,365.57q-2.71,6.29-5.51,12.53,2.49-6.39,5-12.73l4.81-12.8,4.64-12.86,4.36-12.95c5.66-17.31,10.74-34.82,14.91-52.55,4.32-17.69,7.73-35.59,10.47-53.6l1.91-13.53,1.6-13.57,1.38-13.61Z" transform="translate(-6.72)"/><path d="M73.55,184a81.1,81.1,0,0,1,13,5,96.61,96.61,0,0,1,12.11,7,95.65,95.65,0,0,1,11,8.66,80.48,80.48,0,0,1,9.5,10.21c-3.45-3.11-6.93-6.14-10.52-9s-7.27-5.63-11.08-8.19-7.71-5-11.71-7.27S77.72,186,73.55,184Z" transform="translate(-6.72)"/><path d="M108.38,230.43c2.76.66,5.48,1.42,8.22,2.18,1.36.38,2.72.81,4.07,1.24s2.7.91,4,1.41a.72.72,0,0,1,.44.89v0q-1.23,4.14-2.55,8.27c-.85,2.76-1.79,5.49-2.71,8.23s-1.93,5.45-2.93,8.16-2.09,5.39-3.18,8.07v0a.83.83,0,0,1-1,.49A38.93,38.93,0,0,1,103,265.8,38,38,0,0,1,98.57,263a33.43,33.43,0,0,1-4-3.33c1.4,1,2.83,2,4.3,2.83a45.26,45.26,0,0,0,4.56,2.3,42.66,42.66,0,0,0,9.69,2.95l-1,.52c1-2.69,2-5.4,2.95-8.11L118,252l2.83-8.16,2.88-8.16.43.93c-1.29-.56-2.59-1.09-3.9-1.62l-3.94-1.55C113.68,232.43,111,231.49,108.38,230.43Z" transform="translate(-6.72)"/><path d="M111.73,269c-.28,2.07-.63,4.13-1,6.19s-.76,4.12-1.18,6.17c-.85,4.09-1.83,8.16-2.91,12.2s-2.26,8.06-3.56,12-2.68,7.93-4.17,11.84l0,0a.81.81,0,0,1-1.05.47l-.15-.08c-2.7-1.75-5.39-3.51-8.06-5.31l-4-2.73q-2-1.37-4-2.77,2.15,1.11,4.26,2.28l4.23,2.32c2.81,1.57,5.59,3.18,8.37,4.79l-1.22.43c1.33-3.94,2.61-7.9,3.87-11.87s2.47-8,3.64-11.94,2.34-8,3.47-12Z" transform="translate(-6.72)"/></g><polygon class="cls-12" points="274.18 63.89 270.25 55.68 268.37 64.7 259.74 65.93 267.29 70.08 264.85 76.68 271.43 70.31 279.46 75.55 275.62 68.74 281.74 63.63 274.18 63.89"/><polygon class="cls-12" points="75.04 132.89 71.94 127.31 71.42 133.85 66.05 135.3 71.14 137.75 70.09 142.59 73.78 137.63 79.26 140.81 76.31 136.24 79.8 132.2 75.04 132.89"/><circle class="cls-12" cx="247.4" cy="109.55" r="2.5"/><circle class="cls-12" cx="39.4" cy="188.55" r="2.5"/><circle class="cls-12" cx="42.4" cy="95.55" r="2.5"/><circle class="cls-12" cx="78.4" cy="76.55" r="1.5"/><circle class="cls-12" cx="237.4" cy="131.55" r="1.5"/><circle class="cls-12" cx="242.4" cy="31.55" r="1.5"/><circle class="cls-13" cx="21.2" cy="213.73" r="2.25"/><circle class="cls-13" cx="307.2" cy="207.73" r="2.25"/><circle class="cls-13" cx="263.2" cy="133.73" r="2.25"/></g></g></svg>